G04 #@! TF.FileFunction,Copper,L2,Bot,Signal*
%FSLAX46Y46*%
G04 Gerber Fmt 4.6, Leading zero omitted, Abs format (unit mm)*
G04 Created by KiCad (PCBNEW 4.0.7) date 11/06/18 17:06:44*
%MOMM*%
%LPD*%
G01*
G04 APERTURE LIST*
%ADD10C,0.100000*%
%ADD11R,1.800000X1.800000*%
%ADD12C,1.800000*%
%ADD13R,1.600000X1.600000*%
%ADD14C,1.600000*%
%ADD15C,5.000000*%
%ADD16R,3.500000X3.500000*%
%ADD17O,1.600000X1.600000*%
%ADD18R,1.700000X1.700000*%
%ADD19O,1.700000X1.700000*%
%ADD20R,3.000000X3.000000*%
%ADD21C,3.000000*%
%ADD22C,0.600000*%
%ADD23C,0.250000*%
%ADD24C,0.254000*%
G04 APERTURE END LIST*
D10*
D11*
X128270000Y-69215000D03*
D12*
X128270000Y-66675000D03*
D11*
X128270000Y-85725000D03*
D12*
X128270000Y-83185000D03*
D11*
X119380000Y-76200000D03*
D12*
X116840000Y-76200000D03*
D11*
X136525000Y-76200000D03*
D12*
X139065000Y-76200000D03*
D11*
X128270000Y-77470000D03*
D12*
X128270000Y-74930000D03*
D11*
X116840000Y-67945000D03*
D12*
X114300000Y-67945000D03*
D11*
X139065000Y-67945000D03*
D12*
X141605000Y-67945000D03*
D13*
X122555000Y-107315000D03*
D14*
X125325000Y-107315000D03*
X128095000Y-107315000D03*
X130865000Y-107315000D03*
X133635000Y-107315000D03*
X123940000Y-110155000D03*
X126710000Y-110155000D03*
X129480000Y-110155000D03*
X132250000Y-110155000D03*
D15*
X140595000Y-108735000D03*
X115595000Y-108735000D03*
D16*
X104775000Y-104775000D03*
X104775000Y-110775000D03*
X109475000Y-107775000D03*
D15*
X96520000Y-66040000D03*
X158115000Y-66040000D03*
X158115000Y-111760000D03*
X96520000Y-111760000D03*
D14*
X116840000Y-90170000D03*
D17*
X116840000Y-100330000D03*
D14*
X120650000Y-90170000D03*
D17*
X120650000Y-100330000D03*
D14*
X124460000Y-90170000D03*
D17*
X124460000Y-100330000D03*
D14*
X128270000Y-90170000D03*
D17*
X128270000Y-100330000D03*
D14*
X132080000Y-90170000D03*
D17*
X132080000Y-100330000D03*
D14*
X135890000Y-90170000D03*
D17*
X135890000Y-100330000D03*
D14*
X139700000Y-90170000D03*
D17*
X139700000Y-100330000D03*
D18*
X95885000Y-85090000D03*
D19*
X98425000Y-85090000D03*
X100965000Y-85090000D03*
D18*
X153670000Y-85090000D03*
D19*
X156210000Y-85090000D03*
X158750000Y-85090000D03*
D20*
X97790000Y-78740000D03*
D21*
X97790000Y-73660000D03*
D20*
X156845000Y-73660000D03*
D21*
X156845000Y-78740000D03*
D22*
X113665000Y-71120000D03*
X125095000Y-112395000D03*
X128270000Y-112395000D03*
D23*
X114300000Y-70485000D02*
X116840000Y-67945000D01*
X113665000Y-71120000D02*
X114300000Y-70485000D01*
X128270000Y-112395000D02*
X125095000Y-112395000D01*
D24*
G36*
X155458826Y-64261847D02*
X154980546Y-65413674D01*
X154979457Y-66660854D01*
X155455727Y-67813515D01*
X156336847Y-68696174D01*
X157488674Y-69174454D01*
X158735854Y-69175543D01*
X159888515Y-68699273D01*
X160580000Y-68008994D01*
X160580000Y-109791873D01*
X159893153Y-109103826D01*
X158741326Y-108625546D01*
X157494146Y-108624457D01*
X156341485Y-109100727D01*
X155458826Y-109981847D01*
X154980546Y-111133674D01*
X154979457Y-112380854D01*
X155455727Y-113533515D01*
X156146006Y-114225000D01*
X98488127Y-114225000D01*
X99176174Y-113538153D01*
X99654454Y-112386326D01*
X99655543Y-111139146D01*
X99623151Y-111060750D01*
X102390000Y-111060750D01*
X102390000Y-112651309D01*
X102486673Y-112884698D01*
X102665301Y-113063327D01*
X102898690Y-113160000D01*
X104489250Y-113160000D01*
X104648000Y-113001250D01*
X104648000Y-110902000D01*
X104902000Y-110902000D01*
X104902000Y-113001250D01*
X105060750Y-113160000D01*
X106651310Y-113160000D01*
X106884699Y-113063327D01*
X107063327Y-112884698D01*
X107160000Y-112651309D01*
X107160000Y-112580167D01*
X124159838Y-112580167D01*
X124301883Y-112923943D01*
X124564673Y-113187192D01*
X124908201Y-113329838D01*
X125280167Y-113330162D01*
X125623943Y-113188117D01*
X125657118Y-113155000D01*
X127707537Y-113155000D01*
X127739673Y-113187192D01*
X128083201Y-113329838D01*
X128455167Y-113330162D01*
X128798943Y-113188117D01*
X129062192Y-112925327D01*
X129204838Y-112581799D01*
X129205162Y-112209833D01*
X129063117Y-111866057D01*
X128800327Y-111602808D01*
X128456799Y-111460162D01*
X128084833Y-111459838D01*
X127741057Y-111601883D01*
X127707882Y-111635000D01*
X125657463Y-111635000D01*
X125625327Y-111602808D01*
X125281799Y-111460162D01*
X124909833Y-111459838D01*
X124566057Y-111601883D01*
X124302808Y-111864673D01*
X124160162Y-112208201D01*
X124159838Y-112580167D01*
X107160000Y-112580167D01*
X107160000Y-111060750D01*
X107001250Y-110902000D01*
X104902000Y-110902000D01*
X104648000Y-110902000D01*
X102548750Y-110902000D01*
X102390000Y-111060750D01*
X99623151Y-111060750D01*
X99179273Y-109986485D01*
X98298153Y-109103826D01*
X97804133Y-108898691D01*
X102390000Y-108898691D01*
X102390000Y-110489250D01*
X102548750Y-110648000D01*
X104648000Y-110648000D01*
X104648000Y-108548750D01*
X104902000Y-108548750D01*
X104902000Y-110648000D01*
X107001250Y-110648000D01*
X107160000Y-110489250D01*
X107160000Y-109820304D01*
X107186673Y-109884698D01*
X107365301Y-110063327D01*
X107598690Y-110160000D01*
X109189250Y-110160000D01*
X109348000Y-110001250D01*
X109348000Y-107902000D01*
X109602000Y-107902000D01*
X109602000Y-110001250D01*
X109760750Y-110160000D01*
X111351310Y-110160000D01*
X111584699Y-110063327D01*
X111763327Y-109884698D01*
X111860000Y-109651309D01*
X111860000Y-109355854D01*
X112459457Y-109355854D01*
X112935727Y-110508515D01*
X113816847Y-111391174D01*
X114968674Y-111869454D01*
X116215854Y-111870543D01*
X117368515Y-111394273D01*
X118251174Y-110513153D01*
X118281887Y-110439187D01*
X122504752Y-110439187D01*
X122722757Y-110966800D01*
X123126077Y-111370824D01*
X123653309Y-111589750D01*
X124224187Y-111590248D01*
X124751800Y-111372243D01*
X125155824Y-110968923D01*
X125325146Y-110561150D01*
X125492757Y-110966800D01*
X125896077Y-111370824D01*
X126423309Y-111589750D01*
X126994187Y-111590248D01*
X127521800Y-111372243D01*
X127731663Y-111162745D01*
X128651861Y-111162745D01*
X128725995Y-111408864D01*
X129263223Y-111601965D01*
X129833454Y-111574778D01*
X130234005Y-111408864D01*
X130308139Y-111162745D01*
X129480000Y-110334605D01*
X128651861Y-111162745D01*
X127731663Y-111162745D01*
X127925824Y-110968923D01*
X128088590Y-110576940D01*
X128226136Y-110909005D01*
X128472255Y-110983139D01*
X129300395Y-110155000D01*
X129659605Y-110155000D01*
X130487745Y-110983139D01*
X130733864Y-110909005D01*
X130861804Y-110553062D01*
X131032757Y-110966800D01*
X131436077Y-111370824D01*
X131963309Y-111589750D01*
X132534187Y-111590248D01*
X133061800Y-111372243D01*
X133465824Y-110968923D01*
X133684750Y-110441691D01*
X133685248Y-109870813D01*
X133472472Y-109355854D01*
X137459457Y-109355854D01*
X137935727Y-110508515D01*
X138816847Y-111391174D01*
X139968674Y-111869454D01*
X141215854Y-111870543D01*
X142368515Y-111394273D01*
X143251174Y-110513153D01*
X143729454Y-109361326D01*
X143730543Y-108114146D01*
X143254273Y-106961485D01*
X142373153Y-106078826D01*
X141221326Y-105600546D01*
X139974146Y-105599457D01*
X138821485Y-106075727D01*
X137938826Y-106956847D01*
X137460546Y-108108674D01*
X137459457Y-109355854D01*
X133472472Y-109355854D01*
X133467243Y-109343200D01*
X133063923Y-108939176D01*
X132536691Y-108720250D01*
X131965813Y-108719752D01*
X131438200Y-108937757D01*
X131034176Y-109341077D01*
X130871410Y-109733060D01*
X130733864Y-109400995D01*
X130487745Y-109326861D01*
X129659605Y-110155000D01*
X129300395Y-110155000D01*
X128472255Y-109326861D01*
X128226136Y-109400995D01*
X128098196Y-109756938D01*
X127927243Y-109343200D01*
X127731640Y-109147255D01*
X128651861Y-109147255D01*
X129480000Y-109975395D01*
X130308139Y-109147255D01*
X130234005Y-108901136D01*
X129696777Y-108708035D01*
X129126546Y-108735222D01*
X128725995Y-108901136D01*
X128651861Y-109147255D01*
X127731640Y-109147255D01*
X127523923Y-108939176D01*
X126996691Y-108720250D01*
X126425813Y-108719752D01*
X125898200Y-108937757D01*
X125494176Y-109341077D01*
X125324854Y-109748850D01*
X125157243Y-109343200D01*
X124753923Y-108939176D01*
X124226691Y-108720250D01*
X123655813Y-108719752D01*
X123128200Y-108937757D01*
X122724176Y-109341077D01*
X122505250Y-109868309D01*
X122504752Y-110439187D01*
X118281887Y-110439187D01*
X118729454Y-109361326D01*
X118730543Y-108114146D01*
X118254273Y-106961485D01*
X117808567Y-106515000D01*
X121107560Y-106515000D01*
X121107560Y-108115000D01*
X121151838Y-108350317D01*
X121290910Y-108566441D01*
X121503110Y-108711431D01*
X121755000Y-108762440D01*
X123355000Y-108762440D01*
X123590317Y-108718162D01*
X123806441Y-108579090D01*
X123951431Y-108366890D01*
X124002440Y-108115000D01*
X124002440Y-107871913D01*
X124107757Y-108126800D01*
X124511077Y-108530824D01*
X125038309Y-108749750D01*
X125609187Y-108750248D01*
X126136800Y-108532243D01*
X126540824Y-108128923D01*
X126710146Y-107721150D01*
X126877757Y-108126800D01*
X127281077Y-108530824D01*
X127808309Y-108749750D01*
X128379187Y-108750248D01*
X128906800Y-108532243D01*
X129310824Y-108128923D01*
X129480146Y-107721150D01*
X129647757Y-108126800D01*
X130051077Y-108530824D01*
X130578309Y-108749750D01*
X131149187Y-108750248D01*
X131676800Y-108532243D01*
X132080824Y-108128923D01*
X132250146Y-107721150D01*
X132417757Y-108126800D01*
X132821077Y-108530824D01*
X133348309Y-108749750D01*
X133919187Y-108750248D01*
X134446800Y-108532243D01*
X134850824Y-108128923D01*
X135069750Y-107601691D01*
X135070248Y-107030813D01*
X134852243Y-106503200D01*
X134448923Y-106099176D01*
X133921691Y-105880250D01*
X133350813Y-105879752D01*
X132823200Y-106097757D01*
X132419176Y-106501077D01*
X132249854Y-106908850D01*
X132082243Y-106503200D01*
X131678923Y-106099176D01*
X131151691Y-105880250D01*
X130580813Y-105879752D01*
X130053200Y-106097757D01*
X129649176Y-106501077D01*
X129479854Y-106908850D01*
X129312243Y-106503200D01*
X128908923Y-106099176D01*
X128381691Y-105880250D01*
X127810813Y-105879752D01*
X127283200Y-106097757D01*
X126879176Y-106501077D01*
X126709854Y-106908850D01*
X126542243Y-106503200D01*
X126138923Y-106099176D01*
X125611691Y-105880250D01*
X125040813Y-105879752D01*
X124513200Y-106097757D01*
X124109176Y-106501077D01*
X124002440Y-106758126D01*
X124002440Y-106515000D01*
X123958162Y-106279683D01*
X123819090Y-106063559D01*
X123606890Y-105918569D01*
X123355000Y-105867560D01*
X121755000Y-105867560D01*
X121519683Y-105911838D01*
X121303559Y-106050910D01*
X121158569Y-106263110D01*
X121107560Y-106515000D01*
X117808567Y-106515000D01*
X117373153Y-106078826D01*
X116221326Y-105600546D01*
X114974146Y-105599457D01*
X113821485Y-106075727D01*
X112938826Y-106956847D01*
X112460546Y-108108674D01*
X112459457Y-109355854D01*
X111860000Y-109355854D01*
X111860000Y-108060750D01*
X111701250Y-107902000D01*
X109602000Y-107902000D01*
X109348000Y-107902000D01*
X107248750Y-107902000D01*
X107090000Y-108060750D01*
X107090000Y-108729696D01*
X107063327Y-108665302D01*
X106884699Y-108486673D01*
X106651310Y-108390000D01*
X105060750Y-108390000D01*
X104902000Y-108548750D01*
X104648000Y-108548750D01*
X104489250Y-108390000D01*
X102898690Y-108390000D01*
X102665301Y-108486673D01*
X102486673Y-108665302D01*
X102390000Y-108898691D01*
X97804133Y-108898691D01*
X97146326Y-108625546D01*
X95899146Y-108624457D01*
X94746485Y-109100727D01*
X94055000Y-109791006D01*
X94055000Y-103025000D01*
X102377560Y-103025000D01*
X102377560Y-106525000D01*
X102421838Y-106760317D01*
X102560910Y-106976441D01*
X102773110Y-107121431D01*
X103025000Y-107172440D01*
X106525000Y-107172440D01*
X106760317Y-107128162D01*
X106976441Y-106989090D01*
X107090000Y-106822891D01*
X107090000Y-107489250D01*
X107248750Y-107648000D01*
X109348000Y-107648000D01*
X109348000Y-105548750D01*
X109602000Y-105548750D01*
X109602000Y-107648000D01*
X111701250Y-107648000D01*
X111860000Y-107489250D01*
X111860000Y-105898691D01*
X111763327Y-105665302D01*
X111584699Y-105486673D01*
X111351310Y-105390000D01*
X109760750Y-105390000D01*
X109602000Y-105548750D01*
X109348000Y-105548750D01*
X109189250Y-105390000D01*
X107598690Y-105390000D01*
X107365301Y-105486673D01*
X107186673Y-105665302D01*
X107172440Y-105699663D01*
X107172440Y-103025000D01*
X107128162Y-102789683D01*
X106989090Y-102573559D01*
X106776890Y-102428569D01*
X106525000Y-102377560D01*
X103025000Y-102377560D01*
X102789683Y-102421838D01*
X102573559Y-102560910D01*
X102428569Y-102773110D01*
X102377560Y-103025000D01*
X94055000Y-103025000D01*
X94055000Y-100301887D01*
X115405000Y-100301887D01*
X115405000Y-100358113D01*
X115514233Y-100907264D01*
X115825302Y-101372811D01*
X116290849Y-101683880D01*
X116840000Y-101793113D01*
X117389151Y-101683880D01*
X117854698Y-101372811D01*
X118165767Y-100907264D01*
X118275000Y-100358113D01*
X118275000Y-100301887D01*
X119215000Y-100301887D01*
X119215000Y-100358113D01*
X119324233Y-100907264D01*
X119635302Y-101372811D01*
X120100849Y-101683880D01*
X120650000Y-101793113D01*
X121199151Y-101683880D01*
X121664698Y-101372811D01*
X121975767Y-100907264D01*
X122085000Y-100358113D01*
X122085000Y-100301887D01*
X123025000Y-100301887D01*
X123025000Y-100358113D01*
X123134233Y-100907264D01*
X123445302Y-101372811D01*
X123910849Y-101683880D01*
X124460000Y-101793113D01*
X125009151Y-101683880D01*
X125474698Y-101372811D01*
X125785767Y-100907264D01*
X125895000Y-100358113D01*
X125895000Y-100301887D01*
X126835000Y-100301887D01*
X126835000Y-100358113D01*
X126944233Y-100907264D01*
X127255302Y-101372811D01*
X127720849Y-101683880D01*
X128270000Y-101793113D01*
X128819151Y-101683880D01*
X129284698Y-101372811D01*
X129595767Y-100907264D01*
X129705000Y-100358113D01*
X129705000Y-100301887D01*
X130645000Y-100301887D01*
X130645000Y-100358113D01*
X130754233Y-100907264D01*
X131065302Y-101372811D01*
X131530849Y-101683880D01*
X132080000Y-101793113D01*
X132629151Y-101683880D01*
X133094698Y-101372811D01*
X133405767Y-100907264D01*
X133515000Y-100358113D01*
X133515000Y-100301887D01*
X134455000Y-100301887D01*
X134455000Y-100358113D01*
X134564233Y-100907264D01*
X134875302Y-101372811D01*
X135340849Y-101683880D01*
X135890000Y-101793113D01*
X136439151Y-101683880D01*
X136904698Y-101372811D01*
X137215767Y-100907264D01*
X137325000Y-100358113D01*
X137325000Y-100301887D01*
X138265000Y-100301887D01*
X138265000Y-100358113D01*
X138374233Y-100907264D01*
X138685302Y-101372811D01*
X139150849Y-101683880D01*
X139700000Y-101793113D01*
X140249151Y-101683880D01*
X140714698Y-101372811D01*
X141025767Y-100907264D01*
X141135000Y-100358113D01*
X141135000Y-100301887D01*
X141025767Y-99752736D01*
X140714698Y-99287189D01*
X140249151Y-98976120D01*
X139700000Y-98866887D01*
X139150849Y-98976120D01*
X138685302Y-99287189D01*
X138374233Y-99752736D01*
X138265000Y-100301887D01*
X137325000Y-100301887D01*
X137215767Y-99752736D01*
X136904698Y-99287189D01*
X136439151Y-98976120D01*
X135890000Y-98866887D01*
X135340849Y-98976120D01*
X134875302Y-99287189D01*
X134564233Y-99752736D01*
X134455000Y-100301887D01*
X133515000Y-100301887D01*
X133405767Y-99752736D01*
X133094698Y-99287189D01*
X132629151Y-98976120D01*
X132080000Y-98866887D01*
X131530849Y-98976120D01*
X131065302Y-99287189D01*
X130754233Y-99752736D01*
X130645000Y-100301887D01*
X129705000Y-100301887D01*
X129595767Y-99752736D01*
X129284698Y-99287189D01*
X128819151Y-98976120D01*
X128270000Y-98866887D01*
X127720849Y-98976120D01*
X127255302Y-99287189D01*
X126944233Y-99752736D01*
X126835000Y-100301887D01*
X125895000Y-100301887D01*
X125785767Y-99752736D01*
X125474698Y-99287189D01*
X125009151Y-98976120D01*
X124460000Y-98866887D01*
X123910849Y-98976120D01*
X123445302Y-99287189D01*
X123134233Y-99752736D01*
X123025000Y-100301887D01*
X122085000Y-100301887D01*
X121975767Y-99752736D01*
X121664698Y-99287189D01*
X121199151Y-98976120D01*
X120650000Y-98866887D01*
X120100849Y-98976120D01*
X119635302Y-99287189D01*
X119324233Y-99752736D01*
X119215000Y-100301887D01*
X118275000Y-100301887D01*
X118165767Y-99752736D01*
X117854698Y-99287189D01*
X117389151Y-98976120D01*
X116840000Y-98866887D01*
X116290849Y-98976120D01*
X115825302Y-99287189D01*
X115514233Y-99752736D01*
X115405000Y-100301887D01*
X94055000Y-100301887D01*
X94055000Y-90454187D01*
X115404752Y-90454187D01*
X115622757Y-90981800D01*
X116026077Y-91385824D01*
X116553309Y-91604750D01*
X117124187Y-91605248D01*
X117651800Y-91387243D01*
X118055824Y-90983923D01*
X118274750Y-90456691D01*
X118274752Y-90454187D01*
X119214752Y-90454187D01*
X119432757Y-90981800D01*
X119836077Y-91385824D01*
X120363309Y-91604750D01*
X120934187Y-91605248D01*
X121461800Y-91387243D01*
X121865824Y-90983923D01*
X122084750Y-90456691D01*
X122084752Y-90454187D01*
X123024752Y-90454187D01*
X123242757Y-90981800D01*
X123646077Y-91385824D01*
X124173309Y-91604750D01*
X124744187Y-91605248D01*
X125271800Y-91387243D01*
X125675824Y-90983923D01*
X125894750Y-90456691D01*
X125894752Y-90454187D01*
X126834752Y-90454187D01*
X127052757Y-90981800D01*
X127456077Y-91385824D01*
X127983309Y-91604750D01*
X128554187Y-91605248D01*
X129081800Y-91387243D01*
X129485824Y-90983923D01*
X129704750Y-90456691D01*
X129704752Y-90454187D01*
X130644752Y-90454187D01*
X130862757Y-90981800D01*
X131266077Y-91385824D01*
X131793309Y-91604750D01*
X132364187Y-91605248D01*
X132891800Y-91387243D01*
X133295824Y-90983923D01*
X133514750Y-90456691D01*
X133514752Y-90454187D01*
X134454752Y-90454187D01*
X134672757Y-90981800D01*
X135076077Y-91385824D01*
X135603309Y-91604750D01*
X136174187Y-91605248D01*
X136701800Y-91387243D01*
X137105824Y-90983923D01*
X137324750Y-90456691D01*
X137324752Y-90454187D01*
X138264752Y-90454187D01*
X138482757Y-90981800D01*
X138886077Y-91385824D01*
X139413309Y-91604750D01*
X139984187Y-91605248D01*
X140511800Y-91387243D01*
X140915824Y-90983923D01*
X141134750Y-90456691D01*
X141135248Y-89885813D01*
X140917243Y-89358200D01*
X140513923Y-88954176D01*
X139986691Y-88735250D01*
X139415813Y-88734752D01*
X138888200Y-88952757D01*
X138484176Y-89356077D01*
X138265250Y-89883309D01*
X138264752Y-90454187D01*
X137324752Y-90454187D01*
X137325248Y-89885813D01*
X137107243Y-89358200D01*
X136703923Y-88954176D01*
X136176691Y-88735250D01*
X135605813Y-88734752D01*
X135078200Y-88952757D01*
X134674176Y-89356077D01*
X134455250Y-89883309D01*
X134454752Y-90454187D01*
X133514752Y-90454187D01*
X133515248Y-89885813D01*
X133297243Y-89358200D01*
X132893923Y-88954176D01*
X132366691Y-88735250D01*
X131795813Y-88734752D01*
X131268200Y-88952757D01*
X130864176Y-89356077D01*
X130645250Y-89883309D01*
X130644752Y-90454187D01*
X129704752Y-90454187D01*
X129705248Y-89885813D01*
X129487243Y-89358200D01*
X129083923Y-88954176D01*
X128556691Y-88735250D01*
X127985813Y-88734752D01*
X127458200Y-88952757D01*
X127054176Y-89356077D01*
X126835250Y-89883309D01*
X126834752Y-90454187D01*
X125894752Y-90454187D01*
X125895248Y-89885813D01*
X125677243Y-89358200D01*
X125273923Y-88954176D01*
X124746691Y-88735250D01*
X124175813Y-88734752D01*
X123648200Y-88952757D01*
X123244176Y-89356077D01*
X123025250Y-89883309D01*
X123024752Y-90454187D01*
X122084752Y-90454187D01*
X122085248Y-89885813D01*
X121867243Y-89358200D01*
X121463923Y-88954176D01*
X120936691Y-88735250D01*
X120365813Y-88734752D01*
X119838200Y-88952757D01*
X119434176Y-89356077D01*
X119215250Y-89883309D01*
X119214752Y-90454187D01*
X118274752Y-90454187D01*
X118275248Y-89885813D01*
X118057243Y-89358200D01*
X117653923Y-88954176D01*
X117126691Y-88735250D01*
X116555813Y-88734752D01*
X116028200Y-88952757D01*
X115624176Y-89356077D01*
X115405250Y-89883309D01*
X115404752Y-90454187D01*
X94055000Y-90454187D01*
X94055000Y-84240000D01*
X94387560Y-84240000D01*
X94387560Y-85940000D01*
X94431838Y-86175317D01*
X94570910Y-86391441D01*
X94783110Y-86536431D01*
X95035000Y-86587440D01*
X96735000Y-86587440D01*
X96970317Y-86543162D01*
X97186441Y-86404090D01*
X97331431Y-86191890D01*
X97345086Y-86124459D01*
X97374946Y-86169147D01*
X97856715Y-86491054D01*
X98425000Y-86604093D01*
X98993285Y-86491054D01*
X99475054Y-86169147D01*
X99695000Y-85839974D01*
X99914946Y-86169147D01*
X100396715Y-86491054D01*
X100965000Y-86604093D01*
X101533285Y-86491054D01*
X102015054Y-86169147D01*
X102336961Y-85687378D01*
X102450000Y-85119093D01*
X102450000Y-85060907D01*
X102403076Y-84825000D01*
X126722560Y-84825000D01*
X126722560Y-86625000D01*
X126766838Y-86860317D01*
X126905910Y-87076441D01*
X127118110Y-87221431D01*
X127370000Y-87272440D01*
X129170000Y-87272440D01*
X129405317Y-87228162D01*
X129621441Y-87089090D01*
X129766431Y-86876890D01*
X129817440Y-86625000D01*
X129817440Y-84825000D01*
X129773162Y-84589683D01*
X129634090Y-84373559D01*
X129438620Y-84240000D01*
X152172560Y-84240000D01*
X152172560Y-85940000D01*
X152216838Y-86175317D01*
X152355910Y-86391441D01*
X152568110Y-86536431D01*
X152820000Y-86587440D01*
X154520000Y-86587440D01*
X154755317Y-86543162D01*
X154971441Y-86404090D01*
X155116431Y-86191890D01*
X155130086Y-86124459D01*
X155159946Y-86169147D01*
X155641715Y-86491054D01*
X156210000Y-86604093D01*
X156778285Y-86491054D01*
X157260054Y-86169147D01*
X157480000Y-85839974D01*
X157699946Y-86169147D01*
X158181715Y-86491054D01*
X158750000Y-86604093D01*
X159318285Y-86491054D01*
X159800054Y-86169147D01*
X160121961Y-85687378D01*
X160235000Y-85119093D01*
X160235000Y-85060907D01*
X160121961Y-84492622D01*
X159800054Y-84010853D01*
X159318285Y-83688946D01*
X158750000Y-83575907D01*
X158181715Y-83688946D01*
X157699946Y-84010853D01*
X157480000Y-84340026D01*
X157260054Y-84010853D01*
X156778285Y-83688946D01*
X156210000Y-83575907D01*
X155641715Y-83688946D01*
X155159946Y-84010853D01*
X155132150Y-84052452D01*
X155123162Y-84004683D01*
X154984090Y-83788559D01*
X154771890Y-83643569D01*
X154520000Y-83592560D01*
X152820000Y-83592560D01*
X152584683Y-83636838D01*
X152368559Y-83775910D01*
X152223569Y-83988110D01*
X152172560Y-84240000D01*
X129438620Y-84240000D01*
X129421890Y-84228569D01*
X129401466Y-84224433D01*
X129570551Y-84055643D01*
X129804733Y-83491670D01*
X129805265Y-82881009D01*
X129572068Y-82316629D01*
X129140643Y-81884449D01*
X128576670Y-81650267D01*
X127966009Y-81649735D01*
X127401629Y-81882932D01*
X126969449Y-82314357D01*
X126735267Y-82878330D01*
X126734735Y-83488991D01*
X126967932Y-84053371D01*
X127135880Y-84221613D01*
X127134683Y-84221838D01*
X126918559Y-84360910D01*
X126773569Y-84573110D01*
X126722560Y-84825000D01*
X102403076Y-84825000D01*
X102336961Y-84492622D01*
X102015054Y-84010853D01*
X101533285Y-83688946D01*
X100965000Y-83575907D01*
X100396715Y-83688946D01*
X99914946Y-84010853D01*
X99695000Y-84340026D01*
X99475054Y-84010853D01*
X98993285Y-83688946D01*
X98425000Y-83575907D01*
X97856715Y-83688946D01*
X97374946Y-84010853D01*
X97347150Y-84052452D01*
X97338162Y-84004683D01*
X97199090Y-83788559D01*
X96986890Y-83643569D01*
X96735000Y-83592560D01*
X95035000Y-83592560D01*
X94799683Y-83636838D01*
X94583559Y-83775910D01*
X94438569Y-83988110D01*
X94387560Y-84240000D01*
X94055000Y-84240000D01*
X94055000Y-77240000D01*
X95642560Y-77240000D01*
X95642560Y-80240000D01*
X95686838Y-80475317D01*
X95825910Y-80691441D01*
X96038110Y-80836431D01*
X96290000Y-80887440D01*
X99290000Y-80887440D01*
X99525317Y-80843162D01*
X99741441Y-80704090D01*
X99886431Y-80491890D01*
X99937440Y-80240000D01*
X99937440Y-79162815D01*
X154709630Y-79162815D01*
X155033980Y-79947800D01*
X155634041Y-80548909D01*
X156418459Y-80874628D01*
X157267815Y-80875370D01*
X158052800Y-80551020D01*
X158653909Y-79950959D01*
X158979628Y-79166541D01*
X158980370Y-78317185D01*
X158656020Y-77532200D01*
X158055959Y-76931091D01*
X157271541Y-76605372D01*
X156422185Y-76604630D01*
X155637200Y-76928980D01*
X155036091Y-77529041D01*
X154710372Y-78313459D01*
X154709630Y-79162815D01*
X99937440Y-79162815D01*
X99937440Y-77240000D01*
X99893162Y-77004683D01*
X99754090Y-76788559D01*
X99541890Y-76643569D01*
X99290000Y-76592560D01*
X96290000Y-76592560D01*
X96054683Y-76636838D01*
X95838559Y-76775910D01*
X95693569Y-76988110D01*
X95642560Y-77240000D01*
X94055000Y-77240000D01*
X94055000Y-76503991D01*
X115304735Y-76503991D01*
X115537932Y-77068371D01*
X115969357Y-77500551D01*
X116533330Y-77734733D01*
X117143991Y-77735265D01*
X117708371Y-77502068D01*
X117876613Y-77334120D01*
X117876838Y-77335317D01*
X118015910Y-77551441D01*
X118228110Y-77696431D01*
X118480000Y-77747440D01*
X120280000Y-77747440D01*
X120515317Y-77703162D01*
X120731441Y-77564090D01*
X120876431Y-77351890D01*
X120927440Y-77100000D01*
X120927440Y-76570000D01*
X126722560Y-76570000D01*
X126722560Y-78370000D01*
X126766838Y-78605317D01*
X126905910Y-78821441D01*
X127118110Y-78966431D01*
X127370000Y-79017440D01*
X129170000Y-79017440D01*
X129405317Y-78973162D01*
X129621441Y-78834090D01*
X129766431Y-78621890D01*
X129817440Y-78370000D01*
X129817440Y-76570000D01*
X129773162Y-76334683D01*
X129634090Y-76118559D01*
X129421890Y-75973569D01*
X129401466Y-75969433D01*
X129570551Y-75800643D01*
X129778436Y-75300000D01*
X134977560Y-75300000D01*
X134977560Y-77100000D01*
X135021838Y-77335317D01*
X135160910Y-77551441D01*
X135373110Y-77696431D01*
X135625000Y-77747440D01*
X137425000Y-77747440D01*
X137660317Y-77703162D01*
X137876441Y-77564090D01*
X138021431Y-77351890D01*
X138025567Y-77331466D01*
X138194357Y-77500551D01*
X138758330Y-77734733D01*
X139368991Y-77735265D01*
X139933371Y-77502068D01*
X140365551Y-77070643D01*
X140599733Y-76506670D01*
X140600265Y-75896009D01*
X140367068Y-75331629D01*
X139935643Y-74899449D01*
X139371670Y-74665267D01*
X138761009Y-74664735D01*
X138196629Y-74897932D01*
X138028387Y-75065880D01*
X138028162Y-75064683D01*
X137889090Y-74848559D01*
X137676890Y-74703569D01*
X137425000Y-74652560D01*
X135625000Y-74652560D01*
X135389683Y-74696838D01*
X135173559Y-74835910D01*
X135028569Y-75048110D01*
X134977560Y-75300000D01*
X129778436Y-75300000D01*
X129804733Y-75236670D01*
X129805265Y-74626009D01*
X129572068Y-74061629D01*
X129140643Y-73629449D01*
X128576670Y-73395267D01*
X127966009Y-73394735D01*
X127401629Y-73627932D01*
X126969449Y-74059357D01*
X126735267Y-74623330D01*
X126734735Y-75233991D01*
X126967932Y-75798371D01*
X127135880Y-75966613D01*
X127134683Y-75966838D01*
X126918559Y-76105910D01*
X126773569Y-76318110D01*
X126722560Y-76570000D01*
X120927440Y-76570000D01*
X120927440Y-75300000D01*
X120883162Y-75064683D01*
X120744090Y-74848559D01*
X120531890Y-74703569D01*
X120280000Y-74652560D01*
X118480000Y-74652560D01*
X118244683Y-74696838D01*
X118028559Y-74835910D01*
X117883569Y-75048110D01*
X117879433Y-75068534D01*
X117710643Y-74899449D01*
X117146670Y-74665267D01*
X116536009Y-74664735D01*
X115971629Y-74897932D01*
X115539449Y-75329357D01*
X115305267Y-75893330D01*
X115304735Y-76503991D01*
X94055000Y-76503991D01*
X94055000Y-74082815D01*
X95654630Y-74082815D01*
X95978980Y-74867800D01*
X96579041Y-75468909D01*
X97363459Y-75794628D01*
X98212815Y-75795370D01*
X98997800Y-75471020D01*
X99598909Y-74870959D01*
X99924628Y-74086541D01*
X99925370Y-73237185D01*
X99601020Y-72452200D01*
X99309330Y-72160000D01*
X154697560Y-72160000D01*
X154697560Y-75160000D01*
X154741838Y-75395317D01*
X154880910Y-75611441D01*
X155093110Y-75756431D01*
X155345000Y-75807440D01*
X158345000Y-75807440D01*
X158580317Y-75763162D01*
X158796441Y-75624090D01*
X158941431Y-75411890D01*
X158992440Y-75160000D01*
X158992440Y-72160000D01*
X158948162Y-71924683D01*
X158809090Y-71708559D01*
X158596890Y-71563569D01*
X158345000Y-71512560D01*
X155345000Y-71512560D01*
X155109683Y-71556838D01*
X154893559Y-71695910D01*
X154748569Y-71908110D01*
X154697560Y-72160000D01*
X99309330Y-72160000D01*
X99000959Y-71851091D01*
X98216541Y-71525372D01*
X97367185Y-71524630D01*
X96582200Y-71848980D01*
X95981091Y-72449041D01*
X95655372Y-73233459D01*
X95654630Y-74082815D01*
X94055000Y-74082815D01*
X94055000Y-71305167D01*
X112729838Y-71305167D01*
X112871883Y-71648943D01*
X113134673Y-71912192D01*
X113478201Y-72054838D01*
X113850167Y-72055162D01*
X114193943Y-71913117D01*
X114457192Y-71650327D01*
X114599838Y-71306799D01*
X114599879Y-71259923D01*
X116367362Y-69492440D01*
X117740000Y-69492440D01*
X117975317Y-69448162D01*
X118191441Y-69309090D01*
X118336431Y-69096890D01*
X118387440Y-68845000D01*
X118387440Y-68315000D01*
X126722560Y-68315000D01*
X126722560Y-70115000D01*
X126766838Y-70350317D01*
X126905910Y-70566441D01*
X127118110Y-70711431D01*
X127370000Y-70762440D01*
X129170000Y-70762440D01*
X129405317Y-70718162D01*
X129621441Y-70579090D01*
X129766431Y-70366890D01*
X129817440Y-70115000D01*
X129817440Y-68315000D01*
X129773162Y-68079683D01*
X129634090Y-67863559D01*
X129421890Y-67718569D01*
X129401466Y-67714433D01*
X129570551Y-67545643D01*
X129778436Y-67045000D01*
X137517560Y-67045000D01*
X137517560Y-68845000D01*
X137561838Y-69080317D01*
X137700910Y-69296441D01*
X137913110Y-69441431D01*
X138165000Y-69492440D01*
X139965000Y-69492440D01*
X140200317Y-69448162D01*
X140416441Y-69309090D01*
X140561431Y-69096890D01*
X140565567Y-69076466D01*
X140734357Y-69245551D01*
X141298330Y-69479733D01*
X141908991Y-69480265D01*
X142473371Y-69247068D01*
X142905551Y-68815643D01*
X143139733Y-68251670D01*
X143140265Y-67641009D01*
X142907068Y-67076629D01*
X142475643Y-66644449D01*
X141911670Y-66410267D01*
X141301009Y-66409735D01*
X140736629Y-66642932D01*
X140568387Y-66810880D01*
X140568162Y-66809683D01*
X140429090Y-66593559D01*
X140216890Y-66448569D01*
X139965000Y-66397560D01*
X138165000Y-66397560D01*
X137929683Y-66441838D01*
X137713559Y-66580910D01*
X137568569Y-66793110D01*
X137517560Y-67045000D01*
X129778436Y-67045000D01*
X129804733Y-66981670D01*
X129805265Y-66371009D01*
X129572068Y-65806629D01*
X129140643Y-65374449D01*
X128576670Y-65140267D01*
X127966009Y-65139735D01*
X127401629Y-65372932D01*
X126969449Y-65804357D01*
X126735267Y-66368330D01*
X126734735Y-66978991D01*
X126967932Y-67543371D01*
X127135880Y-67711613D01*
X127134683Y-67711838D01*
X126918559Y-67850910D01*
X126773569Y-68063110D01*
X126722560Y-68315000D01*
X118387440Y-68315000D01*
X118387440Y-67045000D01*
X118343162Y-66809683D01*
X118204090Y-66593559D01*
X117991890Y-66448569D01*
X117740000Y-66397560D01*
X115940000Y-66397560D01*
X115704683Y-66441838D01*
X115488559Y-66580910D01*
X115343569Y-66793110D01*
X115339433Y-66813534D01*
X115170643Y-66644449D01*
X114606670Y-66410267D01*
X113996009Y-66409735D01*
X113431629Y-66642932D01*
X112999449Y-67074357D01*
X112765267Y-67638330D01*
X112764735Y-68248991D01*
X112997932Y-68813371D01*
X113429357Y-69245551D01*
X113993330Y-69479733D01*
X114230259Y-69479939D01*
X113525320Y-70184878D01*
X113479833Y-70184838D01*
X113136057Y-70326883D01*
X112872808Y-70589673D01*
X112730162Y-70933201D01*
X112729838Y-71305167D01*
X94055000Y-71305167D01*
X94055000Y-68008127D01*
X94741847Y-68696174D01*
X95893674Y-69174454D01*
X97140854Y-69175543D01*
X98293515Y-68699273D01*
X99176174Y-67818153D01*
X99654454Y-66666326D01*
X99655543Y-65419146D01*
X99179273Y-64266485D01*
X98488994Y-63575000D01*
X156146873Y-63575000D01*
X155458826Y-64261847D01*
X155458826Y-64261847D01*
G37*
X155458826Y-64261847D02*
X154980546Y-65413674D01*
X154979457Y-66660854D01*
X155455727Y-67813515D01*
X156336847Y-68696174D01*
X157488674Y-69174454D01*
X158735854Y-69175543D01*
X159888515Y-68699273D01*
X160580000Y-68008994D01*
X160580000Y-109791873D01*
X159893153Y-109103826D01*
X158741326Y-108625546D01*
X157494146Y-108624457D01*
X156341485Y-109100727D01*
X155458826Y-109981847D01*
X154980546Y-111133674D01*
X154979457Y-112380854D01*
X155455727Y-113533515D01*
X156146006Y-114225000D01*
X98488127Y-114225000D01*
X99176174Y-113538153D01*
X99654454Y-112386326D01*
X99655543Y-111139146D01*
X99623151Y-111060750D01*
X102390000Y-111060750D01*
X102390000Y-112651309D01*
X102486673Y-112884698D01*
X102665301Y-113063327D01*
X102898690Y-113160000D01*
X104489250Y-113160000D01*
X104648000Y-113001250D01*
X104648000Y-110902000D01*
X104902000Y-110902000D01*
X104902000Y-113001250D01*
X105060750Y-113160000D01*
X106651310Y-113160000D01*
X106884699Y-113063327D01*
X107063327Y-112884698D01*
X107160000Y-112651309D01*
X107160000Y-112580167D01*
X124159838Y-112580167D01*
X124301883Y-112923943D01*
X124564673Y-113187192D01*
X124908201Y-113329838D01*
X125280167Y-113330162D01*
X125623943Y-113188117D01*
X125657118Y-113155000D01*
X127707537Y-113155000D01*
X127739673Y-113187192D01*
X128083201Y-113329838D01*
X128455167Y-113330162D01*
X128798943Y-113188117D01*
X129062192Y-112925327D01*
X129204838Y-112581799D01*
X129205162Y-112209833D01*
X129063117Y-111866057D01*
X128800327Y-111602808D01*
X128456799Y-111460162D01*
X128084833Y-111459838D01*
X127741057Y-111601883D01*
X127707882Y-111635000D01*
X125657463Y-111635000D01*
X125625327Y-111602808D01*
X125281799Y-111460162D01*
X124909833Y-111459838D01*
X124566057Y-111601883D01*
X124302808Y-111864673D01*
X124160162Y-112208201D01*
X124159838Y-112580167D01*
X107160000Y-112580167D01*
X107160000Y-111060750D01*
X107001250Y-110902000D01*
X104902000Y-110902000D01*
X104648000Y-110902000D01*
X102548750Y-110902000D01*
X102390000Y-111060750D01*
X99623151Y-111060750D01*
X99179273Y-109986485D01*
X98298153Y-109103826D01*
X97804133Y-108898691D01*
X102390000Y-108898691D01*
X102390000Y-110489250D01*
X102548750Y-110648000D01*
X104648000Y-110648000D01*
X104648000Y-108548750D01*
X104902000Y-108548750D01*
X104902000Y-110648000D01*
X107001250Y-110648000D01*
X107160000Y-110489250D01*
X107160000Y-109820304D01*
X107186673Y-109884698D01*
X107365301Y-110063327D01*
X107598690Y-110160000D01*
X109189250Y-110160000D01*
X109348000Y-110001250D01*
X109348000Y-107902000D01*
X109602000Y-107902000D01*
X109602000Y-110001250D01*
X109760750Y-110160000D01*
X111351310Y-110160000D01*
X111584699Y-110063327D01*
X111763327Y-109884698D01*
X111860000Y-109651309D01*
X111860000Y-109355854D01*
X112459457Y-109355854D01*
X112935727Y-110508515D01*
X113816847Y-111391174D01*
X114968674Y-111869454D01*
X116215854Y-111870543D01*
X117368515Y-111394273D01*
X118251174Y-110513153D01*
X118281887Y-110439187D01*
X122504752Y-110439187D01*
X122722757Y-110966800D01*
X123126077Y-111370824D01*
X123653309Y-111589750D01*
X124224187Y-111590248D01*
X124751800Y-111372243D01*
X125155824Y-110968923D01*
X125325146Y-110561150D01*
X125492757Y-110966800D01*
X125896077Y-111370824D01*
X126423309Y-111589750D01*
X126994187Y-111590248D01*
X127521800Y-111372243D01*
X127731663Y-111162745D01*
X128651861Y-111162745D01*
X128725995Y-111408864D01*
X129263223Y-111601965D01*
X129833454Y-111574778D01*
X130234005Y-111408864D01*
X130308139Y-111162745D01*
X129480000Y-110334605D01*
X128651861Y-111162745D01*
X127731663Y-111162745D01*
X127925824Y-110968923D01*
X128088590Y-110576940D01*
X128226136Y-110909005D01*
X128472255Y-110983139D01*
X129300395Y-110155000D01*
X129659605Y-110155000D01*
X130487745Y-110983139D01*
X130733864Y-110909005D01*
X130861804Y-110553062D01*
X131032757Y-110966800D01*
X131436077Y-111370824D01*
X131963309Y-111589750D01*
X132534187Y-111590248D01*
X133061800Y-111372243D01*
X133465824Y-110968923D01*
X133684750Y-110441691D01*
X133685248Y-109870813D01*
X133472472Y-109355854D01*
X137459457Y-109355854D01*
X137935727Y-110508515D01*
X138816847Y-111391174D01*
X139968674Y-111869454D01*
X141215854Y-111870543D01*
X142368515Y-111394273D01*
X143251174Y-110513153D01*
X143729454Y-109361326D01*
X143730543Y-108114146D01*
X143254273Y-106961485D01*
X142373153Y-106078826D01*
X141221326Y-105600546D01*
X139974146Y-105599457D01*
X138821485Y-106075727D01*
X137938826Y-106956847D01*
X137460546Y-108108674D01*
X137459457Y-109355854D01*
X133472472Y-109355854D01*
X133467243Y-109343200D01*
X133063923Y-108939176D01*
X132536691Y-108720250D01*
X131965813Y-108719752D01*
X131438200Y-108937757D01*
X131034176Y-109341077D01*
X130871410Y-109733060D01*
X130733864Y-109400995D01*
X130487745Y-109326861D01*
X129659605Y-110155000D01*
X129300395Y-110155000D01*
X128472255Y-109326861D01*
X128226136Y-109400995D01*
X128098196Y-109756938D01*
X127927243Y-109343200D01*
X127731640Y-109147255D01*
X128651861Y-109147255D01*
X129480000Y-109975395D01*
X130308139Y-109147255D01*
X130234005Y-108901136D01*
X129696777Y-108708035D01*
X129126546Y-108735222D01*
X128725995Y-108901136D01*
X128651861Y-109147255D01*
X127731640Y-109147255D01*
X127523923Y-108939176D01*
X126996691Y-108720250D01*
X126425813Y-108719752D01*
X125898200Y-108937757D01*
X125494176Y-109341077D01*
X125324854Y-109748850D01*
X125157243Y-109343200D01*
X124753923Y-108939176D01*
X124226691Y-108720250D01*
X123655813Y-108719752D01*
X123128200Y-108937757D01*
X122724176Y-109341077D01*
X122505250Y-109868309D01*
X122504752Y-110439187D01*
X118281887Y-110439187D01*
X118729454Y-109361326D01*
X118730543Y-108114146D01*
X118254273Y-106961485D01*
X117808567Y-106515000D01*
X121107560Y-106515000D01*
X121107560Y-108115000D01*
X121151838Y-108350317D01*
X121290910Y-108566441D01*
X121503110Y-108711431D01*
X121755000Y-108762440D01*
X123355000Y-108762440D01*
X123590317Y-108718162D01*
X123806441Y-108579090D01*
X123951431Y-108366890D01*
X124002440Y-108115000D01*
X124002440Y-107871913D01*
X124107757Y-108126800D01*
X124511077Y-108530824D01*
X125038309Y-108749750D01*
X125609187Y-108750248D01*
X126136800Y-108532243D01*
X126540824Y-108128923D01*
X126710146Y-107721150D01*
X126877757Y-108126800D01*
X127281077Y-108530824D01*
X127808309Y-108749750D01*
X128379187Y-108750248D01*
X128906800Y-108532243D01*
X129310824Y-108128923D01*
X129480146Y-107721150D01*
X129647757Y-108126800D01*
X130051077Y-108530824D01*
X130578309Y-108749750D01*
X131149187Y-108750248D01*
X131676800Y-108532243D01*
X132080824Y-108128923D01*
X132250146Y-107721150D01*
X132417757Y-108126800D01*
X132821077Y-108530824D01*
X133348309Y-108749750D01*
X133919187Y-108750248D01*
X134446800Y-108532243D01*
X134850824Y-108128923D01*
X135069750Y-107601691D01*
X135070248Y-107030813D01*
X134852243Y-106503200D01*
X134448923Y-106099176D01*
X133921691Y-105880250D01*
X133350813Y-105879752D01*
X132823200Y-106097757D01*
X132419176Y-106501077D01*
X132249854Y-106908850D01*
X132082243Y-106503200D01*
X131678923Y-106099176D01*
X131151691Y-105880250D01*
X130580813Y-105879752D01*
X130053200Y-106097757D01*
X129649176Y-106501077D01*
X129479854Y-106908850D01*
X129312243Y-106503200D01*
X128908923Y-106099176D01*
X128381691Y-105880250D01*
X127810813Y-105879752D01*
X127283200Y-106097757D01*
X126879176Y-106501077D01*
X126709854Y-106908850D01*
X126542243Y-106503200D01*
X126138923Y-106099176D01*
X125611691Y-105880250D01*
X125040813Y-105879752D01*
X124513200Y-106097757D01*
X124109176Y-106501077D01*
X124002440Y-106758126D01*
X124002440Y-106515000D01*
X123958162Y-106279683D01*
X123819090Y-106063559D01*
X123606890Y-105918569D01*
X123355000Y-105867560D01*
X121755000Y-105867560D01*
X121519683Y-105911838D01*
X121303559Y-106050910D01*
X121158569Y-106263110D01*
X121107560Y-106515000D01*
X117808567Y-106515000D01*
X117373153Y-106078826D01*
X116221326Y-105600546D01*
X114974146Y-105599457D01*
X113821485Y-106075727D01*
X112938826Y-106956847D01*
X112460546Y-108108674D01*
X112459457Y-109355854D01*
X111860000Y-109355854D01*
X111860000Y-108060750D01*
X111701250Y-107902000D01*
X109602000Y-107902000D01*
X109348000Y-107902000D01*
X107248750Y-107902000D01*
X107090000Y-108060750D01*
X107090000Y-108729696D01*
X107063327Y-108665302D01*
X106884699Y-108486673D01*
X106651310Y-108390000D01*
X105060750Y-108390000D01*
X104902000Y-108548750D01*
X104648000Y-108548750D01*
X104489250Y-108390000D01*
X102898690Y-108390000D01*
X102665301Y-108486673D01*
X102486673Y-108665302D01*
X102390000Y-108898691D01*
X97804133Y-108898691D01*
X97146326Y-108625546D01*
X95899146Y-108624457D01*
X94746485Y-109100727D01*
X94055000Y-109791006D01*
X94055000Y-103025000D01*
X102377560Y-103025000D01*
X102377560Y-106525000D01*
X102421838Y-106760317D01*
X102560910Y-106976441D01*
X102773110Y-107121431D01*
X103025000Y-107172440D01*
X106525000Y-107172440D01*
X106760317Y-107128162D01*
X106976441Y-106989090D01*
X107090000Y-106822891D01*
X107090000Y-107489250D01*
X107248750Y-107648000D01*
X109348000Y-107648000D01*
X109348000Y-105548750D01*
X109602000Y-105548750D01*
X109602000Y-107648000D01*
X111701250Y-107648000D01*
X111860000Y-107489250D01*
X111860000Y-105898691D01*
X111763327Y-105665302D01*
X111584699Y-105486673D01*
X111351310Y-105390000D01*
X109760750Y-105390000D01*
X109602000Y-105548750D01*
X109348000Y-105548750D01*
X109189250Y-105390000D01*
X107598690Y-105390000D01*
X107365301Y-105486673D01*
X107186673Y-105665302D01*
X107172440Y-105699663D01*
X107172440Y-103025000D01*
X107128162Y-102789683D01*
X106989090Y-102573559D01*
X106776890Y-102428569D01*
X106525000Y-102377560D01*
X103025000Y-102377560D01*
X102789683Y-102421838D01*
X102573559Y-102560910D01*
X102428569Y-102773110D01*
X102377560Y-103025000D01*
X94055000Y-103025000D01*
X94055000Y-100301887D01*
X115405000Y-100301887D01*
X115405000Y-100358113D01*
X115514233Y-100907264D01*
X115825302Y-101372811D01*
X116290849Y-101683880D01*
X116840000Y-101793113D01*
X117389151Y-101683880D01*
X117854698Y-101372811D01*
X118165767Y-100907264D01*
X118275000Y-100358113D01*
X118275000Y-100301887D01*
X119215000Y-100301887D01*
X119215000Y-100358113D01*
X119324233Y-100907264D01*
X119635302Y-101372811D01*
X120100849Y-101683880D01*
X120650000Y-101793113D01*
X121199151Y-101683880D01*
X121664698Y-101372811D01*
X121975767Y-100907264D01*
X122085000Y-100358113D01*
X122085000Y-100301887D01*
X123025000Y-100301887D01*
X123025000Y-100358113D01*
X123134233Y-100907264D01*
X123445302Y-101372811D01*
X123910849Y-101683880D01*
X124460000Y-101793113D01*
X125009151Y-101683880D01*
X125474698Y-101372811D01*
X125785767Y-100907264D01*
X125895000Y-100358113D01*
X125895000Y-100301887D01*
X126835000Y-100301887D01*
X126835000Y-100358113D01*
X126944233Y-100907264D01*
X127255302Y-101372811D01*
X127720849Y-101683880D01*
X128270000Y-101793113D01*
X128819151Y-101683880D01*
X129284698Y-101372811D01*
X129595767Y-100907264D01*
X129705000Y-100358113D01*
X129705000Y-100301887D01*
X130645000Y-100301887D01*
X130645000Y-100358113D01*
X130754233Y-100907264D01*
X131065302Y-101372811D01*
X131530849Y-101683880D01*
X132080000Y-101793113D01*
X132629151Y-101683880D01*
X133094698Y-101372811D01*
X133405767Y-100907264D01*
X133515000Y-100358113D01*
X133515000Y-100301887D01*
X134455000Y-100301887D01*
X134455000Y-100358113D01*
X134564233Y-100907264D01*
X134875302Y-101372811D01*
X135340849Y-101683880D01*
X135890000Y-101793113D01*
X136439151Y-101683880D01*
X136904698Y-101372811D01*
X137215767Y-100907264D01*
X137325000Y-100358113D01*
X137325000Y-100301887D01*
X138265000Y-100301887D01*
X138265000Y-100358113D01*
X138374233Y-100907264D01*
X138685302Y-101372811D01*
X139150849Y-101683880D01*
X139700000Y-101793113D01*
X140249151Y-101683880D01*
X140714698Y-101372811D01*
X141025767Y-100907264D01*
X141135000Y-100358113D01*
X141135000Y-100301887D01*
X141025767Y-99752736D01*
X140714698Y-99287189D01*
X140249151Y-98976120D01*
X139700000Y-98866887D01*
X139150849Y-98976120D01*
X138685302Y-99287189D01*
X138374233Y-99752736D01*
X138265000Y-100301887D01*
X137325000Y-100301887D01*
X137215767Y-99752736D01*
X136904698Y-99287189D01*
X136439151Y-98976120D01*
X135890000Y-98866887D01*
X135340849Y-98976120D01*
X134875302Y-99287189D01*
X134564233Y-99752736D01*
X134455000Y-100301887D01*
X133515000Y-100301887D01*
X133405767Y-99752736D01*
X133094698Y-99287189D01*
X132629151Y-98976120D01*
X132080000Y-98866887D01*
X131530849Y-98976120D01*
X131065302Y-99287189D01*
X130754233Y-99752736D01*
X130645000Y-100301887D01*
X129705000Y-100301887D01*
X129595767Y-99752736D01*
X129284698Y-99287189D01*
X128819151Y-98976120D01*
X128270000Y-98866887D01*
X127720849Y-98976120D01*
X127255302Y-99287189D01*
X126944233Y-99752736D01*
X126835000Y-100301887D01*
X125895000Y-100301887D01*
X125785767Y-99752736D01*
X125474698Y-99287189D01*
X125009151Y-98976120D01*
X124460000Y-98866887D01*
X123910849Y-98976120D01*
X123445302Y-99287189D01*
X123134233Y-99752736D01*
X123025000Y-100301887D01*
X122085000Y-100301887D01*
X121975767Y-99752736D01*
X121664698Y-99287189D01*
X121199151Y-98976120D01*
X120650000Y-98866887D01*
X120100849Y-98976120D01*
X119635302Y-99287189D01*
X119324233Y-99752736D01*
X119215000Y-100301887D01*
X118275000Y-100301887D01*
X118165767Y-99752736D01*
X117854698Y-99287189D01*
X117389151Y-98976120D01*
X116840000Y-98866887D01*
X116290849Y-98976120D01*
X115825302Y-99287189D01*
X115514233Y-99752736D01*
X115405000Y-100301887D01*
X94055000Y-100301887D01*
X94055000Y-90454187D01*
X115404752Y-90454187D01*
X115622757Y-90981800D01*
X116026077Y-91385824D01*
X116553309Y-91604750D01*
X117124187Y-91605248D01*
X117651800Y-91387243D01*
X118055824Y-90983923D01*
X118274750Y-90456691D01*
X118274752Y-90454187D01*
X119214752Y-90454187D01*
X119432757Y-90981800D01*
X119836077Y-91385824D01*
X120363309Y-91604750D01*
X120934187Y-91605248D01*
X121461800Y-91387243D01*
X121865824Y-90983923D01*
X122084750Y-90456691D01*
X122084752Y-90454187D01*
X123024752Y-90454187D01*
X123242757Y-90981800D01*
X123646077Y-91385824D01*
X124173309Y-91604750D01*
X124744187Y-91605248D01*
X125271800Y-91387243D01*
X125675824Y-90983923D01*
X125894750Y-90456691D01*
X125894752Y-90454187D01*
X126834752Y-90454187D01*
X127052757Y-90981800D01*
X127456077Y-91385824D01*
X127983309Y-91604750D01*
X128554187Y-91605248D01*
X129081800Y-91387243D01*
X129485824Y-90983923D01*
X129704750Y-90456691D01*
X129704752Y-90454187D01*
X130644752Y-90454187D01*
X130862757Y-90981800D01*
X131266077Y-91385824D01*
X131793309Y-91604750D01*
X132364187Y-91605248D01*
X132891800Y-91387243D01*
X133295824Y-90983923D01*
X133514750Y-90456691D01*
X133514752Y-90454187D01*
X134454752Y-90454187D01*
X134672757Y-90981800D01*
X135076077Y-91385824D01*
X135603309Y-91604750D01*
X136174187Y-91605248D01*
X136701800Y-91387243D01*
X137105824Y-90983923D01*
X137324750Y-90456691D01*
X137324752Y-90454187D01*
X138264752Y-90454187D01*
X138482757Y-90981800D01*
X138886077Y-91385824D01*
X139413309Y-91604750D01*
X139984187Y-91605248D01*
X140511800Y-91387243D01*
X140915824Y-90983923D01*
X141134750Y-90456691D01*
X141135248Y-89885813D01*
X140917243Y-89358200D01*
X140513923Y-88954176D01*
X139986691Y-88735250D01*
X139415813Y-88734752D01*
X138888200Y-88952757D01*
X138484176Y-89356077D01*
X138265250Y-89883309D01*
X138264752Y-90454187D01*
X137324752Y-90454187D01*
X137325248Y-89885813D01*
X137107243Y-89358200D01*
X136703923Y-88954176D01*
X136176691Y-88735250D01*
X135605813Y-88734752D01*
X135078200Y-88952757D01*
X134674176Y-89356077D01*
X134455250Y-89883309D01*
X134454752Y-90454187D01*
X133514752Y-90454187D01*
X133515248Y-89885813D01*
X133297243Y-89358200D01*
X132893923Y-88954176D01*
X132366691Y-88735250D01*
X131795813Y-88734752D01*
X131268200Y-88952757D01*
X130864176Y-89356077D01*
X130645250Y-89883309D01*
X130644752Y-90454187D01*
X129704752Y-90454187D01*
X129705248Y-89885813D01*
X129487243Y-89358200D01*
X129083923Y-88954176D01*
X128556691Y-88735250D01*
X127985813Y-88734752D01*
X127458200Y-88952757D01*
X127054176Y-89356077D01*
X126835250Y-89883309D01*
X126834752Y-90454187D01*
X125894752Y-90454187D01*
X125895248Y-89885813D01*
X125677243Y-89358200D01*
X125273923Y-88954176D01*
X124746691Y-88735250D01*
X124175813Y-88734752D01*
X123648200Y-88952757D01*
X123244176Y-89356077D01*
X123025250Y-89883309D01*
X123024752Y-90454187D01*
X122084752Y-90454187D01*
X122085248Y-89885813D01*
X121867243Y-89358200D01*
X121463923Y-88954176D01*
X120936691Y-88735250D01*
X120365813Y-88734752D01*
X119838200Y-88952757D01*
X119434176Y-89356077D01*
X119215250Y-89883309D01*
X119214752Y-90454187D01*
X118274752Y-90454187D01*
X118275248Y-89885813D01*
X118057243Y-89358200D01*
X117653923Y-88954176D01*
X117126691Y-88735250D01*
X116555813Y-88734752D01*
X116028200Y-88952757D01*
X115624176Y-89356077D01*
X115405250Y-89883309D01*
X115404752Y-90454187D01*
X94055000Y-90454187D01*
X94055000Y-84240000D01*
X94387560Y-84240000D01*
X94387560Y-85940000D01*
X94431838Y-86175317D01*
X94570910Y-86391441D01*
X94783110Y-86536431D01*
X95035000Y-86587440D01*
X96735000Y-86587440D01*
X96970317Y-86543162D01*
X97186441Y-86404090D01*
X97331431Y-86191890D01*
X97345086Y-86124459D01*
X97374946Y-86169147D01*
X97856715Y-86491054D01*
X98425000Y-86604093D01*
X98993285Y-86491054D01*
X99475054Y-86169147D01*
X99695000Y-85839974D01*
X99914946Y-86169147D01*
X100396715Y-86491054D01*
X100965000Y-86604093D01*
X101533285Y-86491054D01*
X102015054Y-86169147D01*
X102336961Y-85687378D01*
X102450000Y-85119093D01*
X102450000Y-85060907D01*
X102403076Y-84825000D01*
X126722560Y-84825000D01*
X126722560Y-86625000D01*
X126766838Y-86860317D01*
X126905910Y-87076441D01*
X127118110Y-87221431D01*
X127370000Y-87272440D01*
X129170000Y-87272440D01*
X129405317Y-87228162D01*
X129621441Y-87089090D01*
X129766431Y-86876890D01*
X129817440Y-86625000D01*
X129817440Y-84825000D01*
X129773162Y-84589683D01*
X129634090Y-84373559D01*
X129438620Y-84240000D01*
X152172560Y-84240000D01*
X152172560Y-85940000D01*
X152216838Y-86175317D01*
X152355910Y-86391441D01*
X152568110Y-86536431D01*
X152820000Y-86587440D01*
X154520000Y-86587440D01*
X154755317Y-86543162D01*
X154971441Y-86404090D01*
X155116431Y-86191890D01*
X155130086Y-86124459D01*
X155159946Y-86169147D01*
X155641715Y-86491054D01*
X156210000Y-86604093D01*
X156778285Y-86491054D01*
X157260054Y-86169147D01*
X157480000Y-85839974D01*
X157699946Y-86169147D01*
X158181715Y-86491054D01*
X158750000Y-86604093D01*
X159318285Y-86491054D01*
X159800054Y-86169147D01*
X160121961Y-85687378D01*
X160235000Y-85119093D01*
X160235000Y-85060907D01*
X160121961Y-84492622D01*
X159800054Y-84010853D01*
X159318285Y-83688946D01*
X158750000Y-83575907D01*
X158181715Y-83688946D01*
X157699946Y-84010853D01*
X157480000Y-84340026D01*
X157260054Y-84010853D01*
X156778285Y-83688946D01*
X156210000Y-83575907D01*
X155641715Y-83688946D01*
X155159946Y-84010853D01*
X155132150Y-84052452D01*
X155123162Y-84004683D01*
X154984090Y-83788559D01*
X154771890Y-83643569D01*
X154520000Y-83592560D01*
X152820000Y-83592560D01*
X152584683Y-83636838D01*
X152368559Y-83775910D01*
X152223569Y-83988110D01*
X152172560Y-84240000D01*
X129438620Y-84240000D01*
X129421890Y-84228569D01*
X129401466Y-84224433D01*
X129570551Y-84055643D01*
X129804733Y-83491670D01*
X129805265Y-82881009D01*
X129572068Y-82316629D01*
X129140643Y-81884449D01*
X128576670Y-81650267D01*
X127966009Y-81649735D01*
X127401629Y-81882932D01*
X126969449Y-82314357D01*
X126735267Y-82878330D01*
X126734735Y-83488991D01*
X126967932Y-84053371D01*
X127135880Y-84221613D01*
X127134683Y-84221838D01*
X126918559Y-84360910D01*
X126773569Y-84573110D01*
X126722560Y-84825000D01*
X102403076Y-84825000D01*
X102336961Y-84492622D01*
X102015054Y-84010853D01*
X101533285Y-83688946D01*
X100965000Y-83575907D01*
X100396715Y-83688946D01*
X99914946Y-84010853D01*
X99695000Y-84340026D01*
X99475054Y-84010853D01*
X98993285Y-83688946D01*
X98425000Y-83575907D01*
X97856715Y-83688946D01*
X97374946Y-84010853D01*
X97347150Y-84052452D01*
X97338162Y-84004683D01*
X97199090Y-83788559D01*
X96986890Y-83643569D01*
X96735000Y-83592560D01*
X95035000Y-83592560D01*
X94799683Y-83636838D01*
X94583559Y-83775910D01*
X94438569Y-83988110D01*
X94387560Y-84240000D01*
X94055000Y-84240000D01*
X94055000Y-77240000D01*
X95642560Y-77240000D01*
X95642560Y-80240000D01*
X95686838Y-80475317D01*
X95825910Y-80691441D01*
X96038110Y-80836431D01*
X96290000Y-80887440D01*
X99290000Y-80887440D01*
X99525317Y-80843162D01*
X99741441Y-80704090D01*
X99886431Y-80491890D01*
X99937440Y-80240000D01*
X99937440Y-79162815D01*
X154709630Y-79162815D01*
X155033980Y-79947800D01*
X155634041Y-80548909D01*
X156418459Y-80874628D01*
X157267815Y-80875370D01*
X158052800Y-80551020D01*
X158653909Y-79950959D01*
X158979628Y-79166541D01*
X158980370Y-78317185D01*
X158656020Y-77532200D01*
X158055959Y-76931091D01*
X157271541Y-76605372D01*
X156422185Y-76604630D01*
X155637200Y-76928980D01*
X155036091Y-77529041D01*
X154710372Y-78313459D01*
X154709630Y-79162815D01*
X99937440Y-79162815D01*
X99937440Y-77240000D01*
X99893162Y-77004683D01*
X99754090Y-76788559D01*
X99541890Y-76643569D01*
X99290000Y-76592560D01*
X96290000Y-76592560D01*
X96054683Y-76636838D01*
X95838559Y-76775910D01*
X95693569Y-76988110D01*
X95642560Y-77240000D01*
X94055000Y-77240000D01*
X94055000Y-76503991D01*
X115304735Y-76503991D01*
X115537932Y-77068371D01*
X115969357Y-77500551D01*
X116533330Y-77734733D01*
X117143991Y-77735265D01*
X117708371Y-77502068D01*
X117876613Y-77334120D01*
X117876838Y-77335317D01*
X118015910Y-77551441D01*
X118228110Y-77696431D01*
X118480000Y-77747440D01*
X120280000Y-77747440D01*
X120515317Y-77703162D01*
X120731441Y-77564090D01*
X120876431Y-77351890D01*
X120927440Y-77100000D01*
X120927440Y-76570000D01*
X126722560Y-76570000D01*
X126722560Y-78370000D01*
X126766838Y-78605317D01*
X126905910Y-78821441D01*
X127118110Y-78966431D01*
X127370000Y-79017440D01*
X129170000Y-79017440D01*
X129405317Y-78973162D01*
X129621441Y-78834090D01*
X129766431Y-78621890D01*
X129817440Y-78370000D01*
X129817440Y-76570000D01*
X129773162Y-76334683D01*
X129634090Y-76118559D01*
X129421890Y-75973569D01*
X129401466Y-75969433D01*
X129570551Y-75800643D01*
X129778436Y-75300000D01*
X134977560Y-75300000D01*
X134977560Y-77100000D01*
X135021838Y-77335317D01*
X135160910Y-77551441D01*
X135373110Y-77696431D01*
X135625000Y-77747440D01*
X137425000Y-77747440D01*
X137660317Y-77703162D01*
X137876441Y-77564090D01*
X138021431Y-77351890D01*
X138025567Y-77331466D01*
X138194357Y-77500551D01*
X138758330Y-77734733D01*
X139368991Y-77735265D01*
X139933371Y-77502068D01*
X140365551Y-77070643D01*
X140599733Y-76506670D01*
X140600265Y-75896009D01*
X140367068Y-75331629D01*
X139935643Y-74899449D01*
X139371670Y-74665267D01*
X138761009Y-74664735D01*
X138196629Y-74897932D01*
X138028387Y-75065880D01*
X138028162Y-75064683D01*
X137889090Y-74848559D01*
X137676890Y-74703569D01*
X137425000Y-74652560D01*
X135625000Y-74652560D01*
X135389683Y-74696838D01*
X135173559Y-74835910D01*
X135028569Y-75048110D01*
X134977560Y-75300000D01*
X129778436Y-75300000D01*
X129804733Y-75236670D01*
X129805265Y-74626009D01*
X129572068Y-74061629D01*
X129140643Y-73629449D01*
X128576670Y-73395267D01*
X127966009Y-73394735D01*
X127401629Y-73627932D01*
X126969449Y-74059357D01*
X126735267Y-74623330D01*
X126734735Y-75233991D01*
X126967932Y-75798371D01*
X127135880Y-75966613D01*
X127134683Y-75966838D01*
X126918559Y-76105910D01*
X126773569Y-76318110D01*
X126722560Y-76570000D01*
X120927440Y-76570000D01*
X120927440Y-75300000D01*
X120883162Y-75064683D01*
X120744090Y-74848559D01*
X120531890Y-74703569D01*
X120280000Y-74652560D01*
X118480000Y-74652560D01*
X118244683Y-74696838D01*
X118028559Y-74835910D01*
X117883569Y-75048110D01*
X117879433Y-75068534D01*
X117710643Y-74899449D01*
X117146670Y-74665267D01*
X116536009Y-74664735D01*
X115971629Y-74897932D01*
X115539449Y-75329357D01*
X115305267Y-75893330D01*
X115304735Y-76503991D01*
X94055000Y-76503991D01*
X94055000Y-74082815D01*
X95654630Y-74082815D01*
X95978980Y-74867800D01*
X96579041Y-75468909D01*
X97363459Y-75794628D01*
X98212815Y-75795370D01*
X98997800Y-75471020D01*
X99598909Y-74870959D01*
X99924628Y-74086541D01*
X99925370Y-73237185D01*
X99601020Y-72452200D01*
X99309330Y-72160000D01*
X154697560Y-72160000D01*
X154697560Y-75160000D01*
X154741838Y-75395317D01*
X154880910Y-75611441D01*
X155093110Y-75756431D01*
X155345000Y-75807440D01*
X158345000Y-75807440D01*
X158580317Y-75763162D01*
X158796441Y-75624090D01*
X158941431Y-75411890D01*
X158992440Y-75160000D01*
X158992440Y-72160000D01*
X158948162Y-71924683D01*
X158809090Y-71708559D01*
X158596890Y-71563569D01*
X158345000Y-71512560D01*
X155345000Y-71512560D01*
X155109683Y-71556838D01*
X154893559Y-71695910D01*
X154748569Y-71908110D01*
X154697560Y-72160000D01*
X99309330Y-72160000D01*
X99000959Y-71851091D01*
X98216541Y-71525372D01*
X97367185Y-71524630D01*
X96582200Y-71848980D01*
X95981091Y-72449041D01*
X95655372Y-73233459D01*
X95654630Y-74082815D01*
X94055000Y-74082815D01*
X94055000Y-71305167D01*
X112729838Y-71305167D01*
X112871883Y-71648943D01*
X113134673Y-71912192D01*
X113478201Y-72054838D01*
X113850167Y-72055162D01*
X114193943Y-71913117D01*
X114457192Y-71650327D01*
X114599838Y-71306799D01*
X114599879Y-71259923D01*
X116367362Y-69492440D01*
X117740000Y-69492440D01*
X117975317Y-69448162D01*
X118191441Y-69309090D01*
X118336431Y-69096890D01*
X118387440Y-68845000D01*
X118387440Y-68315000D01*
X126722560Y-68315000D01*
X126722560Y-70115000D01*
X126766838Y-70350317D01*
X126905910Y-70566441D01*
X127118110Y-70711431D01*
X127370000Y-70762440D01*
X129170000Y-70762440D01*
X129405317Y-70718162D01*
X129621441Y-70579090D01*
X129766431Y-70366890D01*
X129817440Y-70115000D01*
X129817440Y-68315000D01*
X129773162Y-68079683D01*
X129634090Y-67863559D01*
X129421890Y-67718569D01*
X129401466Y-67714433D01*
X129570551Y-67545643D01*
X129778436Y-67045000D01*
X137517560Y-67045000D01*
X137517560Y-68845000D01*
X137561838Y-69080317D01*
X137700910Y-69296441D01*
X137913110Y-69441431D01*
X138165000Y-69492440D01*
X139965000Y-69492440D01*
X140200317Y-69448162D01*
X140416441Y-69309090D01*
X140561431Y-69096890D01*
X140565567Y-69076466D01*
X140734357Y-69245551D01*
X141298330Y-69479733D01*
X141908991Y-69480265D01*
X142473371Y-69247068D01*
X142905551Y-68815643D01*
X143139733Y-68251670D01*
X143140265Y-67641009D01*
X142907068Y-67076629D01*
X142475643Y-66644449D01*
X141911670Y-66410267D01*
X141301009Y-66409735D01*
X140736629Y-66642932D01*
X140568387Y-66810880D01*
X140568162Y-66809683D01*
X140429090Y-66593559D01*
X140216890Y-66448569D01*
X139965000Y-66397560D01*
X138165000Y-66397560D01*
X137929683Y-66441838D01*
X137713559Y-66580910D01*
X137568569Y-66793110D01*
X137517560Y-67045000D01*
X129778436Y-67045000D01*
X129804733Y-66981670D01*
X129805265Y-66371009D01*
X129572068Y-65806629D01*
X129140643Y-65374449D01*
X128576670Y-65140267D01*
X127966009Y-65139735D01*
X127401629Y-65372932D01*
X126969449Y-65804357D01*
X126735267Y-66368330D01*
X126734735Y-66978991D01*
X126967932Y-67543371D01*
X127135880Y-67711613D01*
X127134683Y-67711838D01*
X126918559Y-67850910D01*
X126773569Y-68063110D01*
X126722560Y-68315000D01*
X118387440Y-68315000D01*
X118387440Y-67045000D01*
X118343162Y-66809683D01*
X118204090Y-66593559D01*
X117991890Y-66448569D01*
X117740000Y-66397560D01*
X115940000Y-66397560D01*
X115704683Y-66441838D01*
X115488559Y-66580910D01*
X115343569Y-66793110D01*
X115339433Y-66813534D01*
X115170643Y-66644449D01*
X114606670Y-66410267D01*
X113996009Y-66409735D01*
X113431629Y-66642932D01*
X112999449Y-67074357D01*
X112765267Y-67638330D01*
X112764735Y-68248991D01*
X112997932Y-68813371D01*
X113429357Y-69245551D01*
X113993330Y-69479733D01*
X114230259Y-69479939D01*
X113525320Y-70184878D01*
X113479833Y-70184838D01*
X113136057Y-70326883D01*
X112872808Y-70589673D01*
X112730162Y-70933201D01*
X112729838Y-71305167D01*
X94055000Y-71305167D01*
X94055000Y-68008127D01*
X94741847Y-68696174D01*
X95893674Y-69174454D01*
X97140854Y-69175543D01*
X98293515Y-68699273D01*
X99176174Y-67818153D01*
X99654454Y-66666326D01*
X99655543Y-65419146D01*
X99179273Y-64266485D01*
X98488994Y-63575000D01*
X156146873Y-63575000D01*
X155458826Y-64261847D01*
M02*
