G04 #@! TF.FileFunction,Copper,L1,Top,Signal*
%FSLAX46Y46*%
G04 Gerber Fmt 4.6, Leading zero omitted, Abs format (unit mm)*
G04 Created by KiCad (PCBNEW 4.0.7) date 11/06/18 16:24:10*
%MOMM*%
%LPD*%
G01*
G04 APERTURE LIST*
%ADD10C,0.100000*%
%ADD11R,1.800000X1.800000*%
%ADD12C,1.800000*%
%ADD13R,1.600000X1.600000*%
%ADD14C,1.600000*%
%ADD15C,5.000000*%
%ADD16R,3.500000X3.500000*%
%ADD17O,1.600000X1.600000*%
%ADD18R,1.700000X1.700000*%
%ADD19O,1.700000X1.700000*%
%ADD20R,3.000000X3.000000*%
%ADD21C,3.000000*%
%ADD22C,0.600000*%
%ADD23C,0.250000*%
G04 APERTURE END LIST*
D10*
D11*
X128270000Y-69215000D03*
D12*
X128270000Y-66675000D03*
D11*
X128270000Y-85725000D03*
D12*
X128270000Y-83185000D03*
D11*
X119380000Y-76200000D03*
D12*
X116840000Y-76200000D03*
D11*
X136525000Y-76200000D03*
D12*
X139065000Y-76200000D03*
D11*
X128270000Y-77470000D03*
D12*
X128270000Y-74930000D03*
D11*
X116840000Y-67945000D03*
D12*
X114300000Y-67945000D03*
D11*
X139065000Y-67945000D03*
D12*
X141605000Y-67945000D03*
D13*
X122555000Y-107315000D03*
D14*
X125325000Y-107315000D03*
X128095000Y-107315000D03*
X130865000Y-107315000D03*
X133635000Y-107315000D03*
X123940000Y-110155000D03*
X126710000Y-110155000D03*
X129480000Y-110155000D03*
X132250000Y-110155000D03*
D15*
X140595000Y-108735000D03*
X115595000Y-108735000D03*
D16*
X104775000Y-104775000D03*
X104775000Y-110775000D03*
X109475000Y-107775000D03*
D15*
X96520000Y-66040000D03*
X158115000Y-66040000D03*
X158115000Y-111760000D03*
X96520000Y-111760000D03*
D14*
X116840000Y-90170000D03*
D17*
X116840000Y-100330000D03*
D14*
X120650000Y-90170000D03*
D17*
X120650000Y-100330000D03*
D14*
X124460000Y-90170000D03*
D17*
X124460000Y-100330000D03*
D14*
X128270000Y-90170000D03*
D17*
X128270000Y-100330000D03*
D14*
X132080000Y-90170000D03*
D17*
X132080000Y-100330000D03*
D14*
X135890000Y-90170000D03*
D17*
X135890000Y-100330000D03*
D14*
X139700000Y-90170000D03*
D17*
X139700000Y-100330000D03*
D18*
X95885000Y-85090000D03*
D19*
X98425000Y-85090000D03*
X100965000Y-85090000D03*
D18*
X153670000Y-85090000D03*
D19*
X156210000Y-85090000D03*
X158750000Y-85090000D03*
D20*
X97790000Y-78740000D03*
D21*
X97790000Y-73660000D03*
D20*
X156845000Y-73660000D03*
D21*
X156845000Y-78740000D03*
D22*
X113665000Y-71120000D03*
X125095000Y-112395000D03*
X128270000Y-112395000D03*
D23*
X116840000Y-90170000D02*
X116840000Y-87630000D01*
X120015000Y-69215000D02*
X128270000Y-69215000D01*
X118110000Y-71120000D02*
X120015000Y-69215000D01*
X118110000Y-86360000D02*
X118110000Y-71120000D01*
X116840000Y-87630000D02*
X118110000Y-86360000D01*
X130810000Y-67945000D02*
X130810000Y-65405000D01*
X130810000Y-65405000D02*
X130175000Y-64770000D01*
X130175000Y-74930000D02*
X128270000Y-74930000D01*
X130810000Y-74295000D02*
X130175000Y-74930000D01*
X130810000Y-67945000D02*
X130810000Y-74295000D01*
X125730000Y-81915000D02*
X125730000Y-82550000D01*
X126365000Y-83185000D02*
X127000000Y-83185000D01*
X125730000Y-82550000D02*
X126365000Y-83185000D01*
X141605000Y-74930000D02*
X141605000Y-75565000D01*
X140970000Y-76200000D02*
X140335000Y-76200000D01*
X141605000Y-75565000D02*
X140970000Y-76200000D01*
X114300000Y-73660000D02*
X114300000Y-75565000D01*
X114935000Y-76200000D02*
X116840000Y-76200000D01*
X114300000Y-75565000D02*
X114935000Y-76200000D01*
X114300000Y-67945000D02*
X114300000Y-65405000D01*
X114300000Y-65405000D02*
X113665000Y-64770000D01*
X128270000Y-66675000D02*
X128270000Y-65405000D01*
X128270000Y-65405000D02*
X127635000Y-64770000D01*
X141605000Y-67945000D02*
X141605000Y-65405000D01*
X141605000Y-65405000D02*
X140970000Y-64770000D01*
X100330000Y-67945000D02*
X103505000Y-64770000D01*
X103505000Y-64770000D02*
X113665000Y-64770000D01*
X113665000Y-64770000D02*
X127635000Y-64770000D01*
X127635000Y-64770000D02*
X130175000Y-64770000D01*
X130175000Y-64770000D02*
X140970000Y-64770000D01*
X150495000Y-64770000D02*
X151765000Y-66040000D01*
X151765000Y-66040000D02*
X156845000Y-71120000D01*
X156845000Y-71120000D02*
X156845000Y-73660000D01*
X140970000Y-64770000D02*
X150495000Y-64770000D01*
X128270000Y-74930000D02*
X126365000Y-74930000D01*
X125730000Y-75565000D02*
X125730000Y-77470000D01*
X126365000Y-74930000D02*
X125730000Y-75565000D01*
X128270000Y-83185000D02*
X127000000Y-83185000D01*
X125730000Y-81915000D02*
X125730000Y-77470000D01*
X114300000Y-67945000D02*
X114300000Y-73660000D01*
X128270000Y-74930000D02*
X128905000Y-74930000D01*
X141605000Y-67945000D02*
X141605000Y-74930000D01*
X140335000Y-76200000D02*
X139065000Y-76200000D01*
X141605000Y-67945000D02*
X141605000Y-67310000D01*
X114300000Y-67945000D02*
X114300000Y-67310000D01*
X97790000Y-70485000D02*
X100330000Y-67945000D01*
X93980000Y-71755000D02*
X95250000Y-70485000D01*
X95250000Y-70485000D02*
X97790000Y-70485000D01*
X93980000Y-80010000D02*
X93980000Y-71755000D01*
X97790000Y-78740000D02*
X95250000Y-78740000D01*
X95250000Y-105410000D02*
X101600000Y-105410000D01*
X93980000Y-104140000D02*
X95250000Y-105410000D01*
X93980000Y-80010000D02*
X93980000Y-104140000D01*
X95250000Y-78740000D02*
X93980000Y-80010000D01*
X104775000Y-104775000D02*
X102235000Y-104775000D01*
X126710000Y-112685000D02*
X126710000Y-110155000D01*
X125730000Y-113665000D02*
X126710000Y-112685000D01*
X102235000Y-113665000D02*
X125730000Y-113665000D01*
X101600000Y-113030000D02*
X102235000Y-113665000D01*
X101600000Y-105410000D02*
X101600000Y-113030000D01*
X102235000Y-104775000D02*
X101600000Y-105410000D01*
X120650000Y-90170000D02*
X120650000Y-86995000D01*
X121920000Y-85725000D02*
X128270000Y-85725000D01*
X120650000Y-86995000D02*
X121920000Y-85725000D01*
X124460000Y-90170000D02*
X124460000Y-90805000D01*
X124460000Y-90805000D02*
X123190000Y-92075000D01*
X123190000Y-92075000D02*
X120015000Y-92075000D01*
X120015000Y-92075000D02*
X118745000Y-90805000D01*
X118745000Y-90805000D02*
X118745000Y-76835000D01*
X118745000Y-76835000D02*
X119380000Y-76200000D01*
X128270000Y-90170000D02*
X130175000Y-92075000D01*
X136525000Y-88265000D02*
X136525000Y-76200000D01*
X137795000Y-89535000D02*
X136525000Y-88265000D01*
X137795000Y-90805000D02*
X137795000Y-89535000D01*
X136525000Y-92075000D02*
X137795000Y-90805000D01*
X130175000Y-92075000D02*
X136525000Y-92075000D01*
X132080000Y-90170000D02*
X132080000Y-81280000D01*
X132080000Y-81280000D02*
X128270000Y-77470000D01*
X135890000Y-90170000D02*
X134620000Y-91440000D01*
X113665000Y-90170000D02*
X113665000Y-71120000D01*
X116205000Y-92710000D02*
X113665000Y-90170000D01*
X125095000Y-92710000D02*
X116205000Y-92710000D01*
X126365000Y-91440000D02*
X125095000Y-92710000D01*
X126365000Y-88900000D02*
X126365000Y-91440000D01*
X127000000Y-88265000D02*
X126365000Y-88900000D01*
X129540000Y-88265000D02*
X127000000Y-88265000D01*
X130175000Y-88900000D02*
X129540000Y-88265000D01*
X130175000Y-90805000D02*
X130175000Y-88900000D01*
X130810000Y-91440000D02*
X130175000Y-90805000D01*
X134620000Y-91440000D02*
X130810000Y-91440000D01*
X139065000Y-67945000D02*
X139065000Y-69850000D01*
X137795000Y-88265000D02*
X139700000Y-90170000D01*
X137795000Y-71120000D02*
X137795000Y-88265000D01*
X139065000Y-69850000D02*
X137795000Y-71120000D01*
X122555000Y-106045000D02*
X116840000Y-100330000D01*
X122555000Y-107315000D02*
X122555000Y-106045000D01*
X125325000Y-106275000D02*
X125325000Y-105005000D01*
X125325000Y-105005000D02*
X120650000Y-100330000D01*
X125325000Y-106275000D02*
X125325000Y-107315000D01*
X128095000Y-105410000D02*
X128095000Y-103965000D01*
X128095000Y-103965000D02*
X124460000Y-100330000D01*
X128095000Y-105410000D02*
X128095000Y-107315000D01*
X130810000Y-105410000D02*
X130810000Y-102235000D01*
X130810000Y-102235000D02*
X128905000Y-100330000D01*
X128905000Y-100330000D02*
X128270000Y-100330000D01*
X130810000Y-105410000D02*
X130810000Y-107260000D01*
X130810000Y-107260000D02*
X130865000Y-107315000D01*
X143510000Y-99060000D02*
X141605000Y-100965000D01*
X133635000Y-106045000D02*
X133635000Y-105760000D01*
X133635000Y-106045000D02*
X133635000Y-107315000D01*
X133635000Y-103220000D02*
X134620000Y-102235000D01*
X134620000Y-102235000D02*
X140335000Y-102235000D01*
X140335000Y-102235000D02*
X141605000Y-100965000D01*
X133635000Y-105760000D02*
X133635000Y-103220000D01*
X156210000Y-97790000D02*
X154940000Y-99060000D01*
X154940000Y-99060000D02*
X143510000Y-99060000D01*
X156210000Y-97790000D02*
X156210000Y-85090000D01*
X132080000Y-100330000D02*
X132080000Y-102870000D01*
X132080000Y-107950000D02*
X132080000Y-102870000D01*
X131445000Y-108585000D02*
X132080000Y-107950000D01*
X125730000Y-108585000D02*
X131445000Y-108585000D01*
X125730000Y-108585000D02*
X124160000Y-110155000D01*
X123940000Y-110155000D02*
X124160000Y-110155000D01*
X98425000Y-85090000D02*
X98425000Y-83820000D01*
X95885000Y-99060000D02*
X100330000Y-99060000D01*
X94615000Y-97790000D02*
X95885000Y-99060000D01*
X94615000Y-83185000D02*
X94615000Y-97790000D01*
X95250000Y-82550000D02*
X94615000Y-83185000D01*
X97155000Y-82550000D02*
X95250000Y-82550000D01*
X98425000Y-83820000D02*
X97155000Y-82550000D01*
X132250000Y-110155000D02*
X132250000Y-111590000D01*
X111760000Y-99060000D02*
X100330000Y-99060000D01*
X120015000Y-107315000D02*
X111760000Y-99060000D01*
X120015000Y-111125000D02*
X120015000Y-107315000D01*
X121285000Y-112395000D02*
X120015000Y-111125000D01*
X125095000Y-112395000D02*
X121285000Y-112395000D01*
X131445000Y-112395000D02*
X128270000Y-112395000D01*
X132250000Y-111590000D02*
X131445000Y-112395000D01*
X97790000Y-73660000D02*
X99695000Y-73660000D01*
X100965000Y-74930000D02*
X100965000Y-85090000D01*
X99695000Y-73660000D02*
X100965000Y-74930000D01*
X158750000Y-85090000D02*
X158750000Y-80645000D01*
X158750000Y-80645000D02*
X156845000Y-78740000D01*
X135890000Y-100330000D02*
X135890000Y-99060000D01*
X95885000Y-96520000D02*
X95885000Y-85090000D01*
X97155000Y-97790000D02*
X95885000Y-96520000D01*
X134620000Y-97790000D02*
X97155000Y-97790000D01*
X135890000Y-99060000D02*
X134620000Y-97790000D01*
X139700000Y-100330000D02*
X139700000Y-99060000D01*
X152400000Y-97790000D02*
X153670000Y-96520000D01*
X140970000Y-97790000D02*
X152400000Y-97790000D01*
X139700000Y-99060000D02*
X140970000Y-97790000D01*
X153670000Y-96520000D02*
X153670000Y-85090000D01*
M02*
