G04 #@! TF.FileFunction,Legend,Top*
%FSLAX46Y46*%
G04 Gerber Fmt 4.6, Leading zero omitted, Abs format (unit mm)*
G04 Created by KiCad (PCBNEW 4.0.7) date 11/06/18 17:06:44*
%MOMM*%
%LPD*%
G01*
G04 APERTURE LIST*
%ADD10C,0.100000*%
%ADD11C,0.200000*%
%ADD12C,0.300000*%
%ADD13C,0.120000*%
%ADD14C,0.150000*%
G04 APERTURE END LIST*
D10*
D11*
X158750000Y-90805000D02*
X158750000Y-93345000D01*
X152400000Y-92075000D02*
X151765000Y-92075000D01*
X153670000Y-90805000D02*
X152400000Y-92075000D01*
X153670000Y-87630000D02*
X153670000Y-90805000D01*
X158750000Y-88900000D02*
X158750000Y-90805000D01*
X158750000Y-93345000D02*
X157480000Y-94615000D01*
X157480000Y-94615000D02*
X156845000Y-94615000D01*
D12*
X144558572Y-91967857D02*
X144058572Y-91967857D01*
X144058572Y-92753571D02*
X144058572Y-91253571D01*
X144772858Y-91253571D01*
X145344286Y-92753571D02*
X145344286Y-91253571D01*
X146915715Y-92753571D02*
X146415715Y-92039286D01*
X146058572Y-92753571D02*
X146058572Y-91253571D01*
X146630000Y-91253571D01*
X146772858Y-91325000D01*
X146844286Y-91396429D01*
X146915715Y-91539286D01*
X146915715Y-91753571D01*
X146844286Y-91896429D01*
X146772858Y-91967857D01*
X146630000Y-92039286D01*
X146058572Y-92039286D01*
X147558572Y-91967857D02*
X148058572Y-91967857D01*
X148272858Y-92753571D02*
X147558572Y-92753571D01*
X147558572Y-91253571D01*
X148272858Y-91253571D01*
X149987143Y-91396429D02*
X150058572Y-91325000D01*
X150201429Y-91253571D01*
X150558572Y-91253571D01*
X150701429Y-91325000D01*
X150772858Y-91396429D01*
X150844286Y-91539286D01*
X150844286Y-91682143D01*
X150772858Y-91896429D01*
X149915715Y-92753571D01*
X150844286Y-92753571D01*
X146281429Y-95293571D02*
X146281429Y-93793571D01*
X146852857Y-93793571D01*
X146995715Y-93865000D01*
X147067143Y-93936429D01*
X147138572Y-94079286D01*
X147138572Y-94293571D01*
X147067143Y-94436429D01*
X146995715Y-94507857D01*
X146852857Y-94579286D01*
X146281429Y-94579286D01*
X148424286Y-95293571D02*
X148424286Y-94507857D01*
X148352857Y-94365000D01*
X148210000Y-94293571D01*
X147924286Y-94293571D01*
X147781429Y-94365000D01*
X148424286Y-95222143D02*
X148281429Y-95293571D01*
X147924286Y-95293571D01*
X147781429Y-95222143D01*
X147710000Y-95079286D01*
X147710000Y-94936429D01*
X147781429Y-94793571D01*
X147924286Y-94722143D01*
X148281429Y-94722143D01*
X148424286Y-94650714D01*
X149781429Y-95293571D02*
X149781429Y-93793571D01*
X149781429Y-95222143D02*
X149638572Y-95293571D01*
X149352858Y-95293571D01*
X149210000Y-95222143D01*
X149138572Y-95150714D01*
X149067143Y-95007857D01*
X149067143Y-94579286D01*
X149138572Y-94436429D01*
X149210000Y-94365000D01*
X149352858Y-94293571D01*
X149638572Y-94293571D01*
X149781429Y-94365000D01*
X151138572Y-95293571D02*
X151138572Y-93793571D01*
X151138572Y-95222143D02*
X150995715Y-95293571D01*
X150710001Y-95293571D01*
X150567143Y-95222143D01*
X150495715Y-95150714D01*
X150424286Y-95007857D01*
X150424286Y-94579286D01*
X150495715Y-94436429D01*
X150567143Y-94365000D01*
X150710001Y-94293571D01*
X150995715Y-94293571D01*
X151138572Y-94365000D01*
X152067144Y-95293571D02*
X151924286Y-95222143D01*
X151852858Y-95079286D01*
X151852858Y-93793571D01*
X153210000Y-95222143D02*
X153067143Y-95293571D01*
X152781429Y-95293571D01*
X152638572Y-95222143D01*
X152567143Y-95079286D01*
X152567143Y-94507857D01*
X152638572Y-94365000D01*
X152781429Y-94293571D01*
X153067143Y-94293571D01*
X153210000Y-94365000D01*
X153281429Y-94507857D01*
X153281429Y-94650714D01*
X152567143Y-94793571D01*
X155567143Y-94507857D02*
X155781429Y-94579286D01*
X155852857Y-94650714D01*
X155924286Y-94793571D01*
X155924286Y-95007857D01*
X155852857Y-95150714D01*
X155781429Y-95222143D01*
X155638571Y-95293571D01*
X155067143Y-95293571D01*
X155067143Y-93793571D01*
X155567143Y-93793571D01*
X155710000Y-93865000D01*
X155781429Y-93936429D01*
X155852857Y-94079286D01*
X155852857Y-94222143D01*
X155781429Y-94365000D01*
X155710000Y-94436429D01*
X155567143Y-94507857D01*
X155067143Y-94507857D01*
D11*
X160020000Y-88900000D02*
X160020000Y-89535000D01*
X160020000Y-88900000D02*
X160020000Y-88265000D01*
X154940000Y-88900000D02*
X160020000Y-88900000D01*
X154940000Y-88265000D02*
X154940000Y-89535000D01*
X152400000Y-86995000D02*
X152400000Y-88265000D01*
X157480000Y-87630000D02*
X157480000Y-88265000D01*
X157480000Y-87630000D02*
X157480000Y-86995000D01*
X152400000Y-87630000D02*
X157480000Y-87630000D01*
X95885000Y-93345000D02*
X95885000Y-92710000D01*
D12*
X101322143Y-92753571D02*
X101322143Y-91253571D01*
X101893571Y-91253571D01*
X102036429Y-91325000D01*
X102107857Y-91396429D01*
X102179286Y-91539286D01*
X102179286Y-91753571D01*
X102107857Y-91896429D01*
X102036429Y-91967857D01*
X101893571Y-92039286D01*
X101322143Y-92039286D01*
X103465000Y-92753571D02*
X103465000Y-91967857D01*
X103393571Y-91825000D01*
X103250714Y-91753571D01*
X102965000Y-91753571D01*
X102822143Y-91825000D01*
X103465000Y-92682143D02*
X103322143Y-92753571D01*
X102965000Y-92753571D01*
X102822143Y-92682143D01*
X102750714Y-92539286D01*
X102750714Y-92396429D01*
X102822143Y-92253571D01*
X102965000Y-92182143D01*
X103322143Y-92182143D01*
X103465000Y-92110714D01*
X104822143Y-92753571D02*
X104822143Y-91253571D01*
X104822143Y-92682143D02*
X104679286Y-92753571D01*
X104393572Y-92753571D01*
X104250714Y-92682143D01*
X104179286Y-92610714D01*
X104107857Y-92467857D01*
X104107857Y-92039286D01*
X104179286Y-91896429D01*
X104250714Y-91825000D01*
X104393572Y-91753571D01*
X104679286Y-91753571D01*
X104822143Y-91825000D01*
X106179286Y-92753571D02*
X106179286Y-91253571D01*
X106179286Y-92682143D02*
X106036429Y-92753571D01*
X105750715Y-92753571D01*
X105607857Y-92682143D01*
X105536429Y-92610714D01*
X105465000Y-92467857D01*
X105465000Y-92039286D01*
X105536429Y-91896429D01*
X105607857Y-91825000D01*
X105750715Y-91753571D01*
X106036429Y-91753571D01*
X106179286Y-91825000D01*
X107107858Y-92753571D02*
X106965000Y-92682143D01*
X106893572Y-92539286D01*
X106893572Y-91253571D01*
X108250714Y-92682143D02*
X108107857Y-92753571D01*
X107822143Y-92753571D01*
X107679286Y-92682143D01*
X107607857Y-92539286D01*
X107607857Y-91967857D01*
X107679286Y-91825000D01*
X107822143Y-91753571D01*
X108107857Y-91753571D01*
X108250714Y-91825000D01*
X108322143Y-91967857D01*
X108322143Y-92110714D01*
X107607857Y-92253571D01*
X110036428Y-92325000D02*
X110750714Y-92325000D01*
X109893571Y-92753571D02*
X110393571Y-91253571D01*
X110893571Y-92753571D01*
D11*
X99695000Y-92075000D02*
X100330000Y-92075000D01*
X98425000Y-90805000D02*
X99695000Y-92075000D01*
X98425000Y-88900000D02*
X98425000Y-90805000D01*
D12*
X99282143Y-94507857D02*
X98782143Y-94507857D01*
X98782143Y-95293571D02*
X98782143Y-93793571D01*
X99496429Y-93793571D01*
X100067857Y-95293571D02*
X100067857Y-93793571D01*
X101639286Y-95293571D02*
X101139286Y-94579286D01*
X100782143Y-95293571D02*
X100782143Y-93793571D01*
X101353571Y-93793571D01*
X101496429Y-93865000D01*
X101567857Y-93936429D01*
X101639286Y-94079286D01*
X101639286Y-94293571D01*
X101567857Y-94436429D01*
X101496429Y-94507857D01*
X101353571Y-94579286D01*
X100782143Y-94579286D01*
X102282143Y-94507857D02*
X102782143Y-94507857D01*
X102996429Y-95293571D02*
X102282143Y-95293571D01*
X102282143Y-93793571D01*
X102996429Y-93793571D01*
X105567857Y-95293571D02*
X104710714Y-95293571D01*
X105139286Y-95293571D02*
X105139286Y-93793571D01*
X104996429Y-94007857D01*
X104853571Y-94150714D01*
X104710714Y-94222143D01*
D11*
X97155000Y-94615000D02*
X97790000Y-94615000D01*
X95885000Y-93345000D02*
X97155000Y-94615000D01*
X95885000Y-87630000D02*
X95885000Y-92710000D01*
X102235000Y-88265000D02*
X102235000Y-89535000D01*
X102235000Y-88900000D02*
X102235000Y-88265000D01*
X97155000Y-88900000D02*
X102235000Y-88900000D01*
X97155000Y-88265000D02*
X97155000Y-89535000D01*
X94615000Y-86995000D02*
X94615000Y-88265000D01*
X99695000Y-86995000D02*
X99695000Y-88265000D01*
X94615000Y-87630000D02*
X99695000Y-87630000D01*
D13*
X128270462Y-64955000D02*
G75*
G03X126725170Y-70505000I-462J-2990000D01*
G01*
X128269538Y-64955000D02*
G75*
G02X129814830Y-70505000I462J-2990000D01*
G01*
X130770000Y-67945000D02*
G75*
G03X130770000Y-67945000I-2500000J0D01*
G01*
X126725000Y-70505000D02*
X129815000Y-70505000D01*
X128270462Y-81465000D02*
G75*
G03X126725170Y-87015000I-462J-2990000D01*
G01*
X128269538Y-81465000D02*
G75*
G02X129814830Y-87015000I462J-2990000D01*
G01*
X130770000Y-84455000D02*
G75*
G03X130770000Y-84455000I-2500000J0D01*
G01*
X126725000Y-87015000D02*
X129815000Y-87015000D01*
X115120000Y-76199538D02*
G75*
G03X120670000Y-77744830I2990000J-462D01*
G01*
X115120000Y-76200462D02*
G75*
G02X120670000Y-74655170I2990000J462D01*
G01*
X120610000Y-76200000D02*
G75*
G03X120610000Y-76200000I-2500000J0D01*
G01*
X120670000Y-77745000D02*
X120670000Y-74655000D01*
X140785000Y-76200462D02*
G75*
G03X135235000Y-74655170I-2990000J462D01*
G01*
X140785000Y-76199538D02*
G75*
G02X135235000Y-77744830I-2990000J-462D01*
G01*
X140295000Y-76200000D02*
G75*
G03X140295000Y-76200000I-2500000J0D01*
G01*
X135235000Y-74655000D02*
X135235000Y-77745000D01*
X128270462Y-73210000D02*
G75*
G03X126725170Y-78760000I-462J-2990000D01*
G01*
X128269538Y-73210000D02*
G75*
G02X129814830Y-78760000I462J-2990000D01*
G01*
X130770000Y-76200000D02*
G75*
G03X130770000Y-76200000I-2500000J0D01*
G01*
X126725000Y-78760000D02*
X129815000Y-78760000D01*
X112580000Y-67944538D02*
G75*
G03X118130000Y-69489830I2990000J-462D01*
G01*
X112580000Y-67945462D02*
G75*
G02X118130000Y-66400170I2990000J462D01*
G01*
X118070000Y-67945000D02*
G75*
G03X118070000Y-67945000I-2500000J0D01*
G01*
X118130000Y-69490000D02*
X118130000Y-66400000D01*
X143325000Y-67945462D02*
G75*
G03X137775000Y-66400170I-2990000J462D01*
G01*
X143325000Y-67944538D02*
G75*
G02X137775000Y-69489830I-2990000J-462D01*
G01*
X142835000Y-67945000D02*
G75*
G03X142835000Y-67945000I-2500000J0D01*
G01*
X137775000Y-66400000D02*
X137775000Y-69490000D01*
X113670000Y-102425000D02*
G75*
G03X112610000Y-103485000I0J-1060000D01*
G01*
X143580000Y-103485000D02*
G75*
G03X142520000Y-102425000I-1060000J0D01*
G01*
X113670000Y-115045000D02*
G75*
G02X112610000Y-113985000I0J1060000D01*
G01*
X142520000Y-115045000D02*
G75*
G03X143580000Y-113985000I0J1060000D01*
G01*
X120228530Y-106473256D02*
G75*
G02X121863311Y-104525000I1634781J288256D01*
G01*
X135961470Y-106473256D02*
G75*
G03X134326689Y-104525000I-1634781J288256D01*
G01*
X121127798Y-111573256D02*
G75*
G03X122762579Y-112945000I1634781J288256D01*
G01*
X135062202Y-111573256D02*
G75*
G02X133427421Y-112945000I-1634781J288256D01*
G01*
X113670000Y-102425000D02*
X142520000Y-102425000D01*
X143580000Y-103485000D02*
X143580000Y-113985000D01*
X142520000Y-115045000D02*
X113670000Y-115045000D01*
X112610000Y-113985000D02*
X112610000Y-103485000D01*
X122305000Y-101530662D02*
X122805000Y-101530662D01*
X122805000Y-101530662D02*
X122555000Y-101963675D01*
X122555000Y-101963675D02*
X122305000Y-101530662D01*
X121863311Y-104525000D02*
X134326689Y-104525000D01*
X122762579Y-112945000D02*
X133427421Y-112945000D01*
X135961470Y-106473256D02*
X135062202Y-111573256D01*
X120228530Y-106473256D02*
X121127798Y-111573256D01*
X109375000Y-109775000D02*
X109375000Y-118575000D01*
X109375000Y-118575000D02*
X100175000Y-118575000D01*
X106675000Y-103875000D02*
X109375000Y-103875000D01*
X109375000Y-103875000D02*
X109375000Y-105775000D01*
X100175000Y-118575000D02*
X100175000Y-103875000D01*
X100175000Y-103875000D02*
X102775000Y-103875000D01*
X98806000Y-66040000D02*
G75*
G03X98806000Y-66040000I-2286000J0D01*
G01*
X160401000Y-66040000D02*
G75*
G03X160401000Y-66040000I-2286000J0D01*
G01*
X160401000Y-111760000D02*
G75*
G03X160401000Y-111760000I-2286000J0D01*
G01*
X98806000Y-111760000D02*
G75*
G03X98806000Y-111760000I-2286000J0D01*
G01*
X118150000Y-92040000D02*
X115530000Y-92040000D01*
X115530000Y-92040000D02*
X115530000Y-98460000D01*
X115530000Y-98460000D02*
X118150000Y-98460000D01*
X118150000Y-98460000D02*
X118150000Y-92040000D01*
X116840000Y-91150000D02*
X116840000Y-92040000D01*
X116840000Y-99350000D02*
X116840000Y-98460000D01*
X121960000Y-92040000D02*
X119340000Y-92040000D01*
X119340000Y-92040000D02*
X119340000Y-98460000D01*
X119340000Y-98460000D02*
X121960000Y-98460000D01*
X121960000Y-98460000D02*
X121960000Y-92040000D01*
X120650000Y-91150000D02*
X120650000Y-92040000D01*
X120650000Y-99350000D02*
X120650000Y-98460000D01*
X125770000Y-92040000D02*
X123150000Y-92040000D01*
X123150000Y-92040000D02*
X123150000Y-98460000D01*
X123150000Y-98460000D02*
X125770000Y-98460000D01*
X125770000Y-98460000D02*
X125770000Y-92040000D01*
X124460000Y-91150000D02*
X124460000Y-92040000D01*
X124460000Y-99350000D02*
X124460000Y-98460000D01*
X129580000Y-92040000D02*
X126960000Y-92040000D01*
X126960000Y-92040000D02*
X126960000Y-98460000D01*
X126960000Y-98460000D02*
X129580000Y-98460000D01*
X129580000Y-98460000D02*
X129580000Y-92040000D01*
X128270000Y-91150000D02*
X128270000Y-92040000D01*
X128270000Y-99350000D02*
X128270000Y-98460000D01*
X133390000Y-92040000D02*
X130770000Y-92040000D01*
X130770000Y-92040000D02*
X130770000Y-98460000D01*
X130770000Y-98460000D02*
X133390000Y-98460000D01*
X133390000Y-98460000D02*
X133390000Y-92040000D01*
X132080000Y-91150000D02*
X132080000Y-92040000D01*
X132080000Y-99350000D02*
X132080000Y-98460000D01*
X137200000Y-92040000D02*
X134580000Y-92040000D01*
X134580000Y-92040000D02*
X134580000Y-98460000D01*
X134580000Y-98460000D02*
X137200000Y-98460000D01*
X137200000Y-98460000D02*
X137200000Y-92040000D01*
X135890000Y-91150000D02*
X135890000Y-92040000D01*
X135890000Y-99350000D02*
X135890000Y-98460000D01*
X141010000Y-92040000D02*
X138390000Y-92040000D01*
X138390000Y-92040000D02*
X138390000Y-98460000D01*
X138390000Y-98460000D02*
X141010000Y-98460000D01*
X141010000Y-98460000D02*
X141010000Y-92040000D01*
X139700000Y-91150000D02*
X139700000Y-92040000D01*
X139700000Y-99350000D02*
X139700000Y-98460000D01*
X102295000Y-86420000D02*
X102295000Y-83760000D01*
X97155000Y-86420000D02*
X102295000Y-86420000D01*
X97155000Y-83760000D02*
X102295000Y-83760000D01*
X97155000Y-86420000D02*
X97155000Y-83760000D01*
X95885000Y-86420000D02*
X94555000Y-86420000D01*
X94555000Y-86420000D02*
X94555000Y-85090000D01*
X160080000Y-86420000D02*
X160080000Y-83760000D01*
X154940000Y-86420000D02*
X160080000Y-86420000D01*
X154940000Y-83760000D02*
X160080000Y-83760000D01*
X154940000Y-86420000D02*
X154940000Y-83760000D01*
X153670000Y-86420000D02*
X152340000Y-86420000D01*
X152340000Y-86420000D02*
X152340000Y-85090000D01*
X100330000Y-71120000D02*
X100330000Y-81280000D01*
X101600000Y-71120000D02*
X93980000Y-71120000D01*
X93980000Y-71120000D02*
X93980000Y-81280000D01*
X93980000Y-81280000D02*
X101600000Y-81280000D01*
X101600000Y-81280000D02*
X101600000Y-71120000D01*
X154305000Y-81280000D02*
X154305000Y-71120000D01*
X153035000Y-81280000D02*
X160655000Y-81280000D01*
X160655000Y-81280000D02*
X160655000Y-71120000D01*
X160655000Y-71120000D02*
X153035000Y-71120000D01*
X153035000Y-71120000D02*
X153035000Y-81280000D01*
D14*
X126365239Y-72318571D02*
X126031905Y-72318571D01*
X126031905Y-72842381D02*
X126031905Y-71842381D01*
X126508096Y-71842381D01*
X126889048Y-72842381D02*
X126889048Y-71842381D01*
X127936667Y-72842381D02*
X127603333Y-72366190D01*
X127365238Y-72842381D02*
X127365238Y-71842381D01*
X127746191Y-71842381D01*
X127841429Y-71890000D01*
X127889048Y-71937619D01*
X127936667Y-72032857D01*
X127936667Y-72175714D01*
X127889048Y-72270952D01*
X127841429Y-72318571D01*
X127746191Y-72366190D01*
X127365238Y-72366190D01*
X128365238Y-72318571D02*
X128698572Y-72318571D01*
X128841429Y-72842381D02*
X128365238Y-72842381D01*
X128365238Y-71842381D01*
X128841429Y-71842381D01*
X130222381Y-71842381D02*
X130317620Y-71842381D01*
X130412858Y-71890000D01*
X130460477Y-71937619D01*
X130508096Y-72032857D01*
X130555715Y-72223333D01*
X130555715Y-72461429D01*
X130508096Y-72651905D01*
X130460477Y-72747143D01*
X130412858Y-72794762D01*
X130317620Y-72842381D01*
X130222381Y-72842381D01*
X130127143Y-72794762D01*
X130079524Y-72747143D01*
X130031905Y-72651905D01*
X129984286Y-72461429D01*
X129984286Y-72223333D01*
X130031905Y-72032857D01*
X130079524Y-71937619D01*
X130127143Y-71890000D01*
X130222381Y-71842381D01*
X113665239Y-64063571D02*
X113331905Y-64063571D01*
X113331905Y-64587381D02*
X113331905Y-63587381D01*
X113808096Y-63587381D01*
X114189048Y-64587381D02*
X114189048Y-63587381D01*
X115236667Y-64587381D02*
X114903333Y-64111190D01*
X114665238Y-64587381D02*
X114665238Y-63587381D01*
X115046191Y-63587381D01*
X115141429Y-63635000D01*
X115189048Y-63682619D01*
X115236667Y-63777857D01*
X115236667Y-63920714D01*
X115189048Y-64015952D01*
X115141429Y-64063571D01*
X115046191Y-64111190D01*
X114665238Y-64111190D01*
X115665238Y-64063571D02*
X115998572Y-64063571D01*
X116141429Y-64587381D02*
X115665238Y-64587381D01*
X115665238Y-63587381D01*
X116141429Y-63587381D01*
X117855715Y-64587381D02*
X117284286Y-64587381D01*
X117570000Y-64587381D02*
X117570000Y-63587381D01*
X117474762Y-63730238D01*
X117379524Y-63825476D01*
X117284286Y-63873095D01*
X138430239Y-64063571D02*
X138096905Y-64063571D01*
X138096905Y-64587381D02*
X138096905Y-63587381D01*
X138573096Y-63587381D01*
X138954048Y-64587381D02*
X138954048Y-63587381D01*
X140001667Y-64587381D02*
X139668333Y-64111190D01*
X139430238Y-64587381D02*
X139430238Y-63587381D01*
X139811191Y-63587381D01*
X139906429Y-63635000D01*
X139954048Y-63682619D01*
X140001667Y-63777857D01*
X140001667Y-63920714D01*
X139954048Y-64015952D01*
X139906429Y-64063571D01*
X139811191Y-64111190D01*
X139430238Y-64111190D01*
X140430238Y-64063571D02*
X140763572Y-64063571D01*
X140906429Y-64587381D02*
X140430238Y-64587381D01*
X140430238Y-63587381D01*
X140906429Y-63587381D01*
X142049286Y-63682619D02*
X142096905Y-63635000D01*
X142192143Y-63587381D01*
X142430239Y-63587381D01*
X142525477Y-63635000D01*
X142573096Y-63682619D01*
X142620715Y-63777857D01*
X142620715Y-63873095D01*
X142573096Y-64015952D01*
X142001667Y-64587381D01*
X142620715Y-64587381D01*
X127761667Y-100877381D02*
X127761667Y-101591667D01*
X127714047Y-101734524D01*
X127618809Y-101829762D01*
X127475952Y-101877381D01*
X127380714Y-101877381D01*
X128761667Y-101877381D02*
X128190238Y-101877381D01*
X128475952Y-101877381D02*
X128475952Y-100877381D01*
X128380714Y-101020238D01*
X128285476Y-101115476D01*
X128190238Y-101163095D01*
X116673334Y-93797381D02*
X116340000Y-93321190D01*
X116101905Y-93797381D02*
X116101905Y-92797381D01*
X116482858Y-92797381D01*
X116578096Y-92845000D01*
X116625715Y-92892619D01*
X116673334Y-92987857D01*
X116673334Y-93130714D01*
X116625715Y-93225952D01*
X116578096Y-93273571D01*
X116482858Y-93321190D01*
X116101905Y-93321190D01*
X117625715Y-93797381D02*
X117054286Y-93797381D01*
X117340000Y-93797381D02*
X117340000Y-92797381D01*
X117244762Y-92940238D01*
X117149524Y-93035476D01*
X117054286Y-93083095D01*
X120483334Y-93797381D02*
X120150000Y-93321190D01*
X119911905Y-93797381D02*
X119911905Y-92797381D01*
X120292858Y-92797381D01*
X120388096Y-92845000D01*
X120435715Y-92892619D01*
X120483334Y-92987857D01*
X120483334Y-93130714D01*
X120435715Y-93225952D01*
X120388096Y-93273571D01*
X120292858Y-93321190D01*
X119911905Y-93321190D01*
X120864286Y-92892619D02*
X120911905Y-92845000D01*
X121007143Y-92797381D01*
X121245239Y-92797381D01*
X121340477Y-92845000D01*
X121388096Y-92892619D01*
X121435715Y-92987857D01*
X121435715Y-93083095D01*
X121388096Y-93225952D01*
X120816667Y-93797381D01*
X121435715Y-93797381D01*
X124293334Y-93797381D02*
X123960000Y-93321190D01*
X123721905Y-93797381D02*
X123721905Y-92797381D01*
X124102858Y-92797381D01*
X124198096Y-92845000D01*
X124245715Y-92892619D01*
X124293334Y-92987857D01*
X124293334Y-93130714D01*
X124245715Y-93225952D01*
X124198096Y-93273571D01*
X124102858Y-93321190D01*
X123721905Y-93321190D01*
X124626667Y-92797381D02*
X125245715Y-92797381D01*
X124912381Y-93178333D01*
X125055239Y-93178333D01*
X125150477Y-93225952D01*
X125198096Y-93273571D01*
X125245715Y-93368810D01*
X125245715Y-93606905D01*
X125198096Y-93702143D01*
X125150477Y-93749762D01*
X125055239Y-93797381D01*
X124769524Y-93797381D01*
X124674286Y-93749762D01*
X124626667Y-93702143D01*
X128103334Y-93797381D02*
X127770000Y-93321190D01*
X127531905Y-93797381D02*
X127531905Y-92797381D01*
X127912858Y-92797381D01*
X128008096Y-92845000D01*
X128055715Y-92892619D01*
X128103334Y-92987857D01*
X128103334Y-93130714D01*
X128055715Y-93225952D01*
X128008096Y-93273571D01*
X127912858Y-93321190D01*
X127531905Y-93321190D01*
X128960477Y-93130714D02*
X128960477Y-93797381D01*
X128722381Y-92749762D02*
X128484286Y-93464048D01*
X129103334Y-93464048D01*
X131913334Y-93797381D02*
X131580000Y-93321190D01*
X131341905Y-93797381D02*
X131341905Y-92797381D01*
X131722858Y-92797381D01*
X131818096Y-92845000D01*
X131865715Y-92892619D01*
X131913334Y-92987857D01*
X131913334Y-93130714D01*
X131865715Y-93225952D01*
X131818096Y-93273571D01*
X131722858Y-93321190D01*
X131341905Y-93321190D01*
X132818096Y-92797381D02*
X132341905Y-92797381D01*
X132294286Y-93273571D01*
X132341905Y-93225952D01*
X132437143Y-93178333D01*
X132675239Y-93178333D01*
X132770477Y-93225952D01*
X132818096Y-93273571D01*
X132865715Y-93368810D01*
X132865715Y-93606905D01*
X132818096Y-93702143D01*
X132770477Y-93749762D01*
X132675239Y-93797381D01*
X132437143Y-93797381D01*
X132341905Y-93749762D01*
X132294286Y-93702143D01*
X135723334Y-93797381D02*
X135390000Y-93321190D01*
X135151905Y-93797381D02*
X135151905Y-92797381D01*
X135532858Y-92797381D01*
X135628096Y-92845000D01*
X135675715Y-92892619D01*
X135723334Y-92987857D01*
X135723334Y-93130714D01*
X135675715Y-93225952D01*
X135628096Y-93273571D01*
X135532858Y-93321190D01*
X135151905Y-93321190D01*
X136580477Y-92797381D02*
X136390000Y-92797381D01*
X136294762Y-92845000D01*
X136247143Y-92892619D01*
X136151905Y-93035476D01*
X136104286Y-93225952D01*
X136104286Y-93606905D01*
X136151905Y-93702143D01*
X136199524Y-93749762D01*
X136294762Y-93797381D01*
X136485239Y-93797381D01*
X136580477Y-93749762D01*
X136628096Y-93702143D01*
X136675715Y-93606905D01*
X136675715Y-93368810D01*
X136628096Y-93273571D01*
X136580477Y-93225952D01*
X136485239Y-93178333D01*
X136294762Y-93178333D01*
X136199524Y-93225952D01*
X136151905Y-93273571D01*
X136104286Y-93368810D01*
X139533334Y-93797381D02*
X139200000Y-93321190D01*
X138961905Y-93797381D02*
X138961905Y-92797381D01*
X139342858Y-92797381D01*
X139438096Y-92845000D01*
X139485715Y-92892619D01*
X139533334Y-92987857D01*
X139533334Y-93130714D01*
X139485715Y-93225952D01*
X139438096Y-93273571D01*
X139342858Y-93321190D01*
X138961905Y-93321190D01*
X139866667Y-92797381D02*
X140533334Y-92797381D01*
X140104762Y-93797381D01*
X92479762Y-86423333D02*
X92527381Y-86280476D01*
X92527381Y-86042380D01*
X92479762Y-85947142D01*
X92432143Y-85899523D01*
X92336905Y-85851904D01*
X92241667Y-85851904D01*
X92146429Y-85899523D01*
X92098810Y-85947142D01*
X92051190Y-86042380D01*
X92003571Y-86232857D01*
X91955952Y-86328095D01*
X91908333Y-86375714D01*
X91813095Y-86423333D01*
X91717857Y-86423333D01*
X91622619Y-86375714D01*
X91575000Y-86328095D01*
X91527381Y-86232857D01*
X91527381Y-85994761D01*
X91575000Y-85851904D01*
X91527381Y-85518571D02*
X92527381Y-85280476D01*
X91813095Y-85089999D01*
X92527381Y-84899523D01*
X91527381Y-84661428D01*
X92527381Y-83756666D02*
X92527381Y-84328095D01*
X92527381Y-84042381D02*
X91527381Y-84042381D01*
X91670238Y-84137619D01*
X91765476Y-84232857D01*
X91813095Y-84328095D01*
X162964762Y-86423333D02*
X163012381Y-86280476D01*
X163012381Y-86042380D01*
X162964762Y-85947142D01*
X162917143Y-85899523D01*
X162821905Y-85851904D01*
X162726667Y-85851904D01*
X162631429Y-85899523D01*
X162583810Y-85947142D01*
X162536190Y-86042380D01*
X162488571Y-86232857D01*
X162440952Y-86328095D01*
X162393333Y-86375714D01*
X162298095Y-86423333D01*
X162202857Y-86423333D01*
X162107619Y-86375714D01*
X162060000Y-86328095D01*
X162012381Y-86232857D01*
X162012381Y-85994761D01*
X162060000Y-85851904D01*
X162012381Y-85518571D02*
X163012381Y-85280476D01*
X162298095Y-85089999D01*
X163012381Y-84899523D01*
X162012381Y-84661428D01*
X162107619Y-84328095D02*
X162060000Y-84280476D01*
X162012381Y-84185238D01*
X162012381Y-83947142D01*
X162060000Y-83851904D01*
X162107619Y-83804285D01*
X162202857Y-83756666D01*
X162298095Y-83756666D01*
X162440952Y-83804285D01*
X163012381Y-84375714D01*
X163012381Y-83756666D01*
X91527381Y-76533333D02*
X92241667Y-76533333D01*
X92384524Y-76580953D01*
X92479762Y-76676191D01*
X92527381Y-76819048D01*
X92527381Y-76914286D01*
X91622619Y-76104762D02*
X91575000Y-76057143D01*
X91527381Y-75961905D01*
X91527381Y-75723809D01*
X91575000Y-75628571D01*
X91622619Y-75580952D01*
X91717857Y-75533333D01*
X91813095Y-75533333D01*
X91955952Y-75580952D01*
X92527381Y-76152381D01*
X92527381Y-75533333D01*
X103322381Y-79319048D02*
X102322381Y-79319048D01*
X102322381Y-78938095D01*
X102370000Y-78842857D01*
X102417619Y-78795238D01*
X102512857Y-78747619D01*
X102655714Y-78747619D01*
X102750952Y-78795238D01*
X102798571Y-78842857D01*
X102846190Y-78938095D01*
X102846190Y-79319048D01*
X103322381Y-77890476D02*
X102798571Y-77890476D01*
X102703333Y-77938095D01*
X102655714Y-78033333D01*
X102655714Y-78223810D01*
X102703333Y-78319048D01*
X103274762Y-77890476D02*
X103322381Y-77985714D01*
X103322381Y-78223810D01*
X103274762Y-78319048D01*
X103179524Y-78366667D01*
X103084286Y-78366667D01*
X102989048Y-78319048D01*
X102941429Y-78223810D01*
X102941429Y-77985714D01*
X102893810Y-77890476D01*
X103322381Y-76985714D02*
X102322381Y-76985714D01*
X103274762Y-76985714D02*
X103322381Y-77080952D01*
X103322381Y-77271429D01*
X103274762Y-77366667D01*
X103227143Y-77414286D01*
X103131905Y-77461905D01*
X102846190Y-77461905D01*
X102750952Y-77414286D01*
X102703333Y-77366667D01*
X102655714Y-77271429D01*
X102655714Y-77080952D01*
X102703333Y-76985714D01*
X103322381Y-76080952D02*
X102322381Y-76080952D01*
X103274762Y-76080952D02*
X103322381Y-76176190D01*
X103322381Y-76366667D01*
X103274762Y-76461905D01*
X103227143Y-76509524D01*
X103131905Y-76557143D01*
X102846190Y-76557143D01*
X102750952Y-76509524D01*
X102703333Y-76461905D01*
X102655714Y-76366667D01*
X102655714Y-76176190D01*
X102703333Y-76080952D01*
X103322381Y-75461905D02*
X103274762Y-75557143D01*
X103179524Y-75604762D01*
X102322381Y-75604762D01*
X103274762Y-74699999D02*
X103322381Y-74795237D01*
X103322381Y-74985714D01*
X103274762Y-75080952D01*
X103179524Y-75128571D01*
X102798571Y-75128571D01*
X102703333Y-75080952D01*
X102655714Y-74985714D01*
X102655714Y-74795237D01*
X102703333Y-74699999D01*
X102798571Y-74652380D01*
X102893810Y-74652380D01*
X102989048Y-75128571D01*
X103036667Y-73509523D02*
X103036667Y-73033332D01*
X103322381Y-73604761D02*
X102322381Y-73271428D01*
X103322381Y-72938094D01*
X162012381Y-76533333D02*
X162726667Y-76533333D01*
X162869524Y-76580953D01*
X162964762Y-76676191D01*
X163012381Y-76819048D01*
X163012381Y-76914286D01*
X162012381Y-76152381D02*
X162012381Y-75533333D01*
X162393333Y-75866667D01*
X162393333Y-75723809D01*
X162440952Y-75628571D01*
X162488571Y-75580952D01*
X162583810Y-75533333D01*
X162821905Y-75533333D01*
X162917143Y-75580952D01*
X162964762Y-75628571D01*
X163012381Y-75723809D01*
X163012381Y-76009524D01*
X162964762Y-76104762D01*
X162917143Y-76152381D01*
X152217381Y-79390477D02*
X151217381Y-79390477D01*
X151217381Y-79009524D01*
X151265000Y-78914286D01*
X151312619Y-78866667D01*
X151407857Y-78819048D01*
X151550714Y-78819048D01*
X151645952Y-78866667D01*
X151693571Y-78914286D01*
X151741190Y-79009524D01*
X151741190Y-79390477D01*
X152217381Y-77961905D02*
X151693571Y-77961905D01*
X151598333Y-78009524D01*
X151550714Y-78104762D01*
X151550714Y-78295239D01*
X151598333Y-78390477D01*
X152169762Y-77961905D02*
X152217381Y-78057143D01*
X152217381Y-78295239D01*
X152169762Y-78390477D01*
X152074524Y-78438096D01*
X151979286Y-78438096D01*
X151884048Y-78390477D01*
X151836429Y-78295239D01*
X151836429Y-78057143D01*
X151788810Y-77961905D01*
X152217381Y-77057143D02*
X151217381Y-77057143D01*
X152169762Y-77057143D02*
X152217381Y-77152381D01*
X152217381Y-77342858D01*
X152169762Y-77438096D01*
X152122143Y-77485715D01*
X152026905Y-77533334D01*
X151741190Y-77533334D01*
X151645952Y-77485715D01*
X151598333Y-77438096D01*
X151550714Y-77342858D01*
X151550714Y-77152381D01*
X151598333Y-77057143D01*
X152217381Y-76152381D02*
X151217381Y-76152381D01*
X152169762Y-76152381D02*
X152217381Y-76247619D01*
X152217381Y-76438096D01*
X152169762Y-76533334D01*
X152122143Y-76580953D01*
X152026905Y-76628572D01*
X151741190Y-76628572D01*
X151645952Y-76580953D01*
X151598333Y-76533334D01*
X151550714Y-76438096D01*
X151550714Y-76247619D01*
X151598333Y-76152381D01*
X152217381Y-75533334D02*
X152169762Y-75628572D01*
X152074524Y-75676191D01*
X151217381Y-75676191D01*
X152169762Y-74771428D02*
X152217381Y-74866666D01*
X152217381Y-75057143D01*
X152169762Y-75152381D01*
X152074524Y-75200000D01*
X151693571Y-75200000D01*
X151598333Y-75152381D01*
X151550714Y-75057143D01*
X151550714Y-74866666D01*
X151598333Y-74771428D01*
X151693571Y-74723809D01*
X151788810Y-74723809D01*
X151884048Y-75200000D01*
X151693571Y-73199999D02*
X151741190Y-73057142D01*
X151788810Y-73009523D01*
X151884048Y-72961904D01*
X152026905Y-72961904D01*
X152122143Y-73009523D01*
X152169762Y-73057142D01*
X152217381Y-73152380D01*
X152217381Y-73533333D01*
X151217381Y-73533333D01*
X151217381Y-73199999D01*
X151265000Y-73104761D01*
X151312619Y-73057142D01*
X151407857Y-73009523D01*
X151503095Y-73009523D01*
X151598333Y-73057142D01*
X151645952Y-73104761D01*
X151693571Y-73199999D01*
X151693571Y-73533333D01*
M02*
