M48
;DRILL file {KiCad 4.0.7} date 11/06/18 16:27:06
;FORMAT={2:4/ absolute / inch / suppress leading zeros}
FMAT,2
INCH,TZ
T1C0.016
T2C0.031
T3C0.035
T4C0.039
T5C0.060
T6C0.120
T7C0.150
%
G90
G05
M72
T1
X44750Y-28000
X49250Y-44250
X50500Y-44250
T2
X46000Y-35500
X46000Y-39500
X47500Y-35500
X47500Y-39500
X49000Y-35500
X49000Y-39500
X50500Y-35500
X50500Y-39500
X52000Y-35500
X52000Y-39500
X53500Y-35500
X53500Y-39500
X55000Y-35500
X55000Y-39500
T3
X45000Y-26750
X46000Y-26750
X46000Y-30000
X47000Y-30000
X50500Y-26250
X50500Y-27250
X50500Y-29500
X50500Y-30500
X50500Y-32750
X50500Y-33750
X53750Y-30000
X54750Y-26750
X54750Y-30000
X55750Y-26750
T4
X37750Y-33500
X38750Y-33500
X39750Y-33500
X48250Y-42250
X48795Y-43368
X49341Y-42250
X49886Y-43368
X50431Y-42250
X50976Y-43368
X51522Y-42250
X52067Y-43368
X52612Y-42250
X60500Y-33500
X61500Y-33500
X62500Y-33500
T5
X38500Y-29000
X38500Y-31000
X61750Y-29000
X61750Y-31000
T6
X38000Y-26000
X38000Y-44000
X62250Y-26000
X62250Y-44000
T7
X45510Y-42809
X55352Y-42809
T4
X40856Y-41250G85X41644Y-41250
G05
X40856Y-43612G85X41644Y-43612
G05
X43100Y-42825G85X43100Y-42037
G05
T0
M30
