G04 #@! TF.FileFunction,Legend,Bot*
%FSLAX46Y46*%
G04 Gerber Fmt 4.6, Leading zero omitted, Abs format (unit mm)*
G04 Created by KiCad (PCBNEW 4.0.7) date 11/06/18 16:24:10*
%MOMM*%
%LPD*%
G01*
G04 APERTURE LIST*
%ADD10C,0.100000*%
%ADD11C,0.300000*%
G04 APERTURE END LIST*
D10*
D11*
X146270001Y-114343571D02*
X146270001Y-112843571D01*
X145627144Y-114343571D02*
X145627144Y-113557857D01*
X145698573Y-113415000D01*
X145841430Y-113343571D01*
X146055715Y-113343571D01*
X146198573Y-113415000D01*
X146270001Y-113486429D01*
X145127144Y-113343571D02*
X144555715Y-113343571D01*
X144912858Y-112843571D02*
X144912858Y-114129286D01*
X144841430Y-114272143D01*
X144698572Y-114343571D01*
X144555715Y-114343571D01*
X144270001Y-113343571D02*
X143698572Y-113343571D01*
X144055715Y-112843571D02*
X144055715Y-114129286D01*
X143984287Y-114272143D01*
X143841429Y-114343571D01*
X143698572Y-114343571D01*
X143198572Y-113343571D02*
X143198572Y-114843571D01*
X143198572Y-113415000D02*
X143055715Y-113343571D01*
X142770001Y-113343571D01*
X142627144Y-113415000D01*
X142555715Y-113486429D01*
X142484286Y-113629286D01*
X142484286Y-114057857D01*
X142555715Y-114200714D01*
X142627144Y-114272143D01*
X142770001Y-114343571D01*
X143055715Y-114343571D01*
X143198572Y-114272143D01*
X141912858Y-114272143D02*
X141770001Y-114343571D01*
X141484286Y-114343571D01*
X141341429Y-114272143D01*
X141270001Y-114129286D01*
X141270001Y-114057857D01*
X141341429Y-113915000D01*
X141484286Y-113843571D01*
X141698572Y-113843571D01*
X141841429Y-113772143D01*
X141912858Y-113629286D01*
X141912858Y-113557857D01*
X141841429Y-113415000D01*
X141698572Y-113343571D01*
X141484286Y-113343571D01*
X141341429Y-113415000D01*
X140627143Y-114200714D02*
X140555715Y-114272143D01*
X140627143Y-114343571D01*
X140698572Y-114272143D01*
X140627143Y-114200714D01*
X140627143Y-114343571D01*
X140627143Y-113415000D02*
X140555715Y-113486429D01*
X140627143Y-113557857D01*
X140698572Y-113486429D01*
X140627143Y-113415000D01*
X140627143Y-113557857D01*
X138841429Y-112772143D02*
X140127143Y-114700714D01*
X137270000Y-112772143D02*
X138555714Y-114700714D01*
X136769999Y-114343571D02*
X136769999Y-112843571D01*
X136127142Y-114343571D02*
X136127142Y-113557857D01*
X136198571Y-113415000D01*
X136341428Y-113343571D01*
X136555713Y-113343571D01*
X136698571Y-113415000D01*
X136769999Y-113486429D01*
X135555713Y-113343571D02*
X135198570Y-114343571D01*
X134841428Y-113343571D01*
X133698571Y-114272143D02*
X133841428Y-114343571D01*
X134127142Y-114343571D01*
X134269999Y-114272143D01*
X134341428Y-114129286D01*
X134341428Y-113557857D01*
X134269999Y-113415000D01*
X134127142Y-113343571D01*
X133841428Y-113343571D01*
X133698571Y-113415000D01*
X133627142Y-113557857D01*
X133627142Y-113700714D01*
X134341428Y-113843571D01*
X133198571Y-113343571D02*
X132627142Y-113343571D01*
X132984285Y-112843571D02*
X132984285Y-114129286D01*
X132912857Y-114272143D01*
X132769999Y-114343571D01*
X132627142Y-114343571D01*
X131555714Y-114272143D02*
X131698571Y-114343571D01*
X131984285Y-114343571D01*
X132127142Y-114272143D01*
X132198571Y-114129286D01*
X132198571Y-113557857D01*
X132127142Y-113415000D01*
X131984285Y-113343571D01*
X131698571Y-113343571D01*
X131555714Y-113415000D01*
X131484285Y-113557857D01*
X131484285Y-113700714D01*
X132198571Y-113843571D01*
X130841428Y-114343571D02*
X130841428Y-112843571D01*
X130841428Y-113415000D02*
X130698571Y-113343571D01*
X130412857Y-113343571D01*
X130270000Y-113415000D01*
X130198571Y-113486429D01*
X130127142Y-113629286D01*
X130127142Y-114057857D01*
X130198571Y-114200714D01*
X130270000Y-114272143D01*
X130412857Y-114343571D01*
X130698571Y-114343571D01*
X130841428Y-114272143D01*
X129269999Y-114343571D02*
X129412857Y-114272143D01*
X129484285Y-114200714D01*
X129555714Y-114057857D01*
X129555714Y-113629286D01*
X129484285Y-113486429D01*
X129412857Y-113415000D01*
X129269999Y-113343571D01*
X129055714Y-113343571D01*
X128912857Y-113415000D01*
X128841428Y-113486429D01*
X128769999Y-113629286D01*
X128769999Y-114057857D01*
X128841428Y-114200714D01*
X128912857Y-114272143D01*
X129055714Y-114343571D01*
X129269999Y-114343571D01*
X127912856Y-114343571D02*
X128055714Y-114272143D01*
X128127142Y-114129286D01*
X128127142Y-112843571D01*
X127127142Y-114343571D02*
X127270000Y-114272143D01*
X127341428Y-114129286D01*
X127341428Y-112843571D01*
X125984286Y-114272143D02*
X126127143Y-114343571D01*
X126412857Y-114343571D01*
X126555714Y-114272143D01*
X126627143Y-114129286D01*
X126627143Y-113557857D01*
X126555714Y-113415000D01*
X126412857Y-113343571D01*
X126127143Y-113343571D01*
X125984286Y-113415000D01*
X125912857Y-113557857D01*
X125912857Y-113700714D01*
X126627143Y-113843571D01*
X125270000Y-114200714D02*
X125198572Y-114272143D01*
X125270000Y-114343571D01*
X125341429Y-114272143D01*
X125270000Y-114200714D01*
X125270000Y-114343571D01*
X124555714Y-114343571D02*
X124555714Y-112843571D01*
X124555714Y-113415000D02*
X124412857Y-113343571D01*
X124127143Y-113343571D01*
X123984286Y-113415000D01*
X123912857Y-113486429D01*
X123841428Y-113629286D01*
X123841428Y-114057857D01*
X123912857Y-114200714D01*
X123984286Y-114272143D01*
X124127143Y-114343571D01*
X124412857Y-114343571D01*
X124555714Y-114272143D01*
X122984285Y-114343571D02*
X123127143Y-114272143D01*
X123198571Y-114129286D01*
X123198571Y-112843571D01*
X122198571Y-114343571D02*
X122341429Y-114272143D01*
X122412857Y-114200714D01*
X122484286Y-114057857D01*
X122484286Y-113629286D01*
X122412857Y-113486429D01*
X122341429Y-113415000D01*
X122198571Y-113343571D01*
X121984286Y-113343571D01*
X121841429Y-113415000D01*
X121770000Y-113486429D01*
X121698571Y-113629286D01*
X121698571Y-114057857D01*
X121770000Y-114200714D01*
X121841429Y-114272143D01*
X121984286Y-114343571D01*
X122198571Y-114343571D01*
X120412857Y-113343571D02*
X120412857Y-114557857D01*
X120484286Y-114700714D01*
X120555714Y-114772143D01*
X120698571Y-114843571D01*
X120912857Y-114843571D01*
X121055714Y-114772143D01*
X120412857Y-114272143D02*
X120555714Y-114343571D01*
X120841428Y-114343571D01*
X120984286Y-114272143D01*
X121055714Y-114200714D01*
X121127143Y-114057857D01*
X121127143Y-113629286D01*
X121055714Y-113486429D01*
X120984286Y-113415000D01*
X120841428Y-113343571D01*
X120555714Y-113343571D01*
X120412857Y-113415000D01*
X119770000Y-114272143D02*
X119627143Y-114343571D01*
X119341428Y-114343571D01*
X119198571Y-114272143D01*
X119127143Y-114129286D01*
X119127143Y-114057857D01*
X119198571Y-113915000D01*
X119341428Y-113843571D01*
X119555714Y-113843571D01*
X119698571Y-113772143D01*
X119770000Y-113629286D01*
X119770000Y-113557857D01*
X119698571Y-113415000D01*
X119555714Y-113343571D01*
X119341428Y-113343571D01*
X119198571Y-113415000D01*
X118484285Y-113343571D02*
X118484285Y-114843571D01*
X118484285Y-113415000D02*
X118341428Y-113343571D01*
X118055714Y-113343571D01*
X117912857Y-113415000D01*
X117841428Y-113486429D01*
X117769999Y-113629286D01*
X117769999Y-114057857D01*
X117841428Y-114200714D01*
X117912857Y-114272143D01*
X118055714Y-114343571D01*
X118341428Y-114343571D01*
X118484285Y-114272143D01*
X116912856Y-114343571D02*
X117055714Y-114272143D01*
X117127142Y-114200714D01*
X117198571Y-114057857D01*
X117198571Y-113629286D01*
X117127142Y-113486429D01*
X117055714Y-113415000D01*
X116912856Y-113343571D01*
X116698571Y-113343571D01*
X116555714Y-113415000D01*
X116484285Y-113486429D01*
X116412856Y-113629286D01*
X116412856Y-114057857D01*
X116484285Y-114200714D01*
X116555714Y-114272143D01*
X116698571Y-114343571D01*
X116912856Y-114343571D01*
X115984285Y-113343571D02*
X115412856Y-113343571D01*
X115769999Y-112843571D02*
X115769999Y-114129286D01*
X115698571Y-114272143D01*
X115555713Y-114343571D01*
X115412856Y-114343571D01*
X114912856Y-114200714D02*
X114841428Y-114272143D01*
X114912856Y-114343571D01*
X114984285Y-114272143D01*
X114912856Y-114200714D01*
X114912856Y-114343571D01*
X113555713Y-114272143D02*
X113698570Y-114343571D01*
X113984284Y-114343571D01*
X114127142Y-114272143D01*
X114198570Y-114200714D01*
X114269999Y-114057857D01*
X114269999Y-113629286D01*
X114198570Y-113486429D01*
X114127142Y-113415000D01*
X113984284Y-113343571D01*
X113698570Y-113343571D01*
X113555713Y-113415000D01*
X112698570Y-114343571D02*
X112841428Y-114272143D01*
X112912856Y-114200714D01*
X112984285Y-114057857D01*
X112984285Y-113629286D01*
X112912856Y-113486429D01*
X112841428Y-113415000D01*
X112698570Y-113343571D01*
X112484285Y-113343571D01*
X112341428Y-113415000D01*
X112269999Y-113486429D01*
X112198570Y-113629286D01*
X112198570Y-114057857D01*
X112269999Y-114200714D01*
X112341428Y-114272143D01*
X112484285Y-114343571D01*
X112698570Y-114343571D01*
X111555713Y-114343571D02*
X111555713Y-113343571D01*
X111555713Y-113486429D02*
X111484285Y-113415000D01*
X111341427Y-113343571D01*
X111127142Y-113343571D01*
X110984285Y-113415000D01*
X110912856Y-113557857D01*
X110912856Y-114343571D01*
X110912856Y-113557857D02*
X110841427Y-113415000D01*
X110698570Y-113343571D01*
X110484285Y-113343571D01*
X110341427Y-113415000D01*
X110269999Y-113557857D01*
X110269999Y-114343571D01*
X139520000Y-94225000D02*
X138805714Y-94225000D01*
X139662857Y-94653571D02*
X139162857Y-93153571D01*
X138662857Y-94653571D01*
X138377143Y-93653571D02*
X137805714Y-93653571D01*
X138162857Y-93153571D02*
X138162857Y-94439286D01*
X138091429Y-94582143D01*
X137948571Y-94653571D01*
X137805714Y-94653571D01*
X136662857Y-94653571D02*
X136662857Y-93867857D01*
X136734286Y-93725000D01*
X136877143Y-93653571D01*
X137162857Y-93653571D01*
X137305714Y-93725000D01*
X136662857Y-94582143D02*
X136805714Y-94653571D01*
X137162857Y-94653571D01*
X137305714Y-94582143D01*
X137377143Y-94439286D01*
X137377143Y-94296429D01*
X137305714Y-94153571D01*
X137162857Y-94082143D01*
X136805714Y-94082143D01*
X136662857Y-94010714D01*
X135948571Y-94653571D02*
X135948571Y-93653571D01*
X135948571Y-93939286D02*
X135877143Y-93796429D01*
X135805714Y-93725000D01*
X135662857Y-93653571D01*
X135520000Y-93653571D01*
X135020000Y-94653571D02*
X135020000Y-93653571D01*
X135020000Y-93153571D02*
X135091429Y-93225000D01*
X135020000Y-93296429D01*
X134948572Y-93225000D01*
X135020000Y-93153571D01*
X135020000Y-93296429D01*
X132734286Y-93153571D02*
X132734286Y-94225000D01*
X132805714Y-94439286D01*
X132948571Y-94582143D01*
X133162857Y-94653571D01*
X133305714Y-94653571D01*
X131805714Y-94653571D02*
X131948572Y-94582143D01*
X132020000Y-94510714D01*
X132091429Y-94367857D01*
X132091429Y-93939286D01*
X132020000Y-93796429D01*
X131948572Y-93725000D01*
X131805714Y-93653571D01*
X131591429Y-93653571D01*
X131448572Y-93725000D01*
X131377143Y-93796429D01*
X131305714Y-93939286D01*
X131305714Y-94367857D01*
X131377143Y-94510714D01*
X131448572Y-94582143D01*
X131591429Y-94653571D01*
X131805714Y-94653571D01*
X130805714Y-93653571D02*
X130448571Y-94653571D01*
X130091429Y-93653571D02*
X130448571Y-94653571D01*
X130591429Y-95010714D01*
X130662857Y-95082143D01*
X130805714Y-95153571D01*
X129591429Y-94582143D02*
X129448572Y-94653571D01*
X129162857Y-94653571D01*
X129020000Y-94582143D01*
X128948572Y-94439286D01*
X128948572Y-94367857D01*
X129020000Y-94225000D01*
X129162857Y-94153571D01*
X129377143Y-94153571D01*
X129520000Y-94082143D01*
X129591429Y-93939286D01*
X129591429Y-93867857D01*
X129520000Y-93725000D01*
X129377143Y-93653571D01*
X129162857Y-93653571D01*
X129020000Y-93725000D01*
X128520000Y-93653571D02*
X127948571Y-93653571D01*
X128305714Y-93153571D02*
X128305714Y-94439286D01*
X128234286Y-94582143D01*
X128091428Y-94653571D01*
X127948571Y-94653571D01*
X127448571Y-94653571D02*
X127448571Y-93653571D01*
X127448571Y-93153571D02*
X127520000Y-93225000D01*
X127448571Y-93296429D01*
X127377143Y-93225000D01*
X127448571Y-93153571D01*
X127448571Y-93296429D01*
X126091428Y-94582143D02*
X126234285Y-94653571D01*
X126519999Y-94653571D01*
X126662857Y-94582143D01*
X126734285Y-94510714D01*
X126805714Y-94367857D01*
X126805714Y-93939286D01*
X126734285Y-93796429D01*
X126662857Y-93725000D01*
X126519999Y-93653571D01*
X126234285Y-93653571D01*
X126091428Y-93725000D01*
X125448571Y-94653571D02*
X125448571Y-93153571D01*
X125305714Y-94082143D02*
X124877143Y-94653571D01*
X124877143Y-93653571D02*
X125448571Y-94225000D01*
X123305714Y-93153571D02*
X122448571Y-93153571D01*
X122877142Y-94653571D02*
X122877142Y-93153571D01*
X121377143Y-94582143D02*
X121520000Y-94653571D01*
X121805714Y-94653571D01*
X121948571Y-94582143D01*
X122020000Y-94439286D01*
X122020000Y-93867857D01*
X121948571Y-93725000D01*
X121805714Y-93653571D01*
X121520000Y-93653571D01*
X121377143Y-93725000D01*
X121305714Y-93867857D01*
X121305714Y-94010714D01*
X122020000Y-94153571D01*
X120734286Y-94582143D02*
X120591429Y-94653571D01*
X120305714Y-94653571D01*
X120162857Y-94582143D01*
X120091429Y-94439286D01*
X120091429Y-94367857D01*
X120162857Y-94225000D01*
X120305714Y-94153571D01*
X120520000Y-94153571D01*
X120662857Y-94082143D01*
X120734286Y-93939286D01*
X120734286Y-93867857D01*
X120662857Y-93725000D01*
X120520000Y-93653571D01*
X120305714Y-93653571D01*
X120162857Y-93725000D01*
X119662857Y-93653571D02*
X119091428Y-93653571D01*
X119448571Y-93153571D02*
X119448571Y-94439286D01*
X119377143Y-94582143D01*
X119234285Y-94653571D01*
X119091428Y-94653571D01*
X118020000Y-94582143D02*
X118162857Y-94653571D01*
X118448571Y-94653571D01*
X118591428Y-94582143D01*
X118662857Y-94439286D01*
X118662857Y-93867857D01*
X118591428Y-93725000D01*
X118448571Y-93653571D01*
X118162857Y-93653571D01*
X118020000Y-93725000D01*
X117948571Y-93867857D01*
X117948571Y-94010714D01*
X118662857Y-94153571D01*
X117305714Y-94653571D02*
X117305714Y-93653571D01*
X117305714Y-93939286D02*
X117234286Y-93796429D01*
X117162857Y-93725000D01*
X117020000Y-93653571D01*
X116877143Y-93653571D01*
X132912857Y-97203571D02*
X133412857Y-96489286D01*
X133770000Y-97203571D02*
X133770000Y-95703571D01*
X133198572Y-95703571D01*
X133055714Y-95775000D01*
X132984286Y-95846429D01*
X132912857Y-95989286D01*
X132912857Y-96203571D01*
X132984286Y-96346429D01*
X133055714Y-96417857D01*
X133198572Y-96489286D01*
X133770000Y-96489286D01*
X131698572Y-97132143D02*
X131841429Y-97203571D01*
X132127143Y-97203571D01*
X132270000Y-97132143D01*
X132341429Y-96989286D01*
X132341429Y-96417857D01*
X132270000Y-96275000D01*
X132127143Y-96203571D01*
X131841429Y-96203571D01*
X131698572Y-96275000D01*
X131627143Y-96417857D01*
X131627143Y-96560714D01*
X132341429Y-96703571D01*
X131127143Y-96203571D02*
X130770000Y-97203571D01*
X130412858Y-96203571D01*
X129841429Y-97203571D02*
X129841429Y-96203571D01*
X129841429Y-95703571D02*
X129912858Y-95775000D01*
X129841429Y-95846429D01*
X129770001Y-95775000D01*
X129841429Y-95703571D01*
X129841429Y-95846429D01*
X129198572Y-97132143D02*
X129055715Y-97203571D01*
X128770000Y-97203571D01*
X128627143Y-97132143D01*
X128555715Y-96989286D01*
X128555715Y-96917857D01*
X128627143Y-96775000D01*
X128770000Y-96703571D01*
X128984286Y-96703571D01*
X129127143Y-96632143D01*
X129198572Y-96489286D01*
X129198572Y-96417857D01*
X129127143Y-96275000D01*
X128984286Y-96203571D01*
X128770000Y-96203571D01*
X128627143Y-96275000D01*
X127912857Y-97203571D02*
X127912857Y-96203571D01*
X127912857Y-95703571D02*
X127984286Y-95775000D01*
X127912857Y-95846429D01*
X127841429Y-95775000D01*
X127912857Y-95703571D01*
X127912857Y-95846429D01*
X126984285Y-97203571D02*
X127127143Y-97132143D01*
X127198571Y-97060714D01*
X127270000Y-96917857D01*
X127270000Y-96489286D01*
X127198571Y-96346429D01*
X127127143Y-96275000D01*
X126984285Y-96203571D01*
X126770000Y-96203571D01*
X126627143Y-96275000D01*
X126555714Y-96346429D01*
X126484285Y-96489286D01*
X126484285Y-96917857D01*
X126555714Y-97060714D01*
X126627143Y-97132143D01*
X126770000Y-97203571D01*
X126984285Y-97203571D01*
X125841428Y-96203571D02*
X125841428Y-97203571D01*
X125841428Y-96346429D02*
X125770000Y-96275000D01*
X125627142Y-96203571D01*
X125412857Y-96203571D01*
X125270000Y-96275000D01*
X125198571Y-96417857D01*
X125198571Y-97203571D01*
X123412857Y-96775000D02*
X122698571Y-96775000D01*
X123555714Y-97203571D02*
X123055714Y-95703571D01*
X122555714Y-97203571D01*
M02*
